<?xml version="1.0" encoding="utf-8"?>
<!-- Generator: Adobe Illustrator 27.5.0, SVG Export Plug-In . SVG Version: 6.00 Build 0)  -->
<svg version="1.1" id="Capa_1" xmlns="http://www.w3.org/2000/svg" xmlns:xlink="http://www.w3.org/1999/xlink" x="0px" y="0px"
	 viewBox="0 0 2122 2122" style="enable-background:new 0 0 2122 2122;" xml:space="preserve">
<path style="fill:#5B588D;" d="M1605.199,611.064c0.442-59.932,0.954-119.864,1.708-179.792
	c0.569-45.225,5.76-91.918-10.347-135.187c-10.695-28.731-29.852-54.285-55.679-71.051c-24.273-15.757-52.076-23.122-80.481-25.421
	c5.543,3.003,10.907,6.368,16.008,10.158c39.054,29.009,63.619,75.892,71.397,123.419c4.28,26.155,2.141,52.845,1.682,79.215
	c-0.591,33.901-1.12,67.803-1.585,101.707c-0.994,72.482-1.697,144.967-2.012,217.456c-0.318,73.3-0.25,146.604,0.45,219.903
	c0.646,67.618,1.806,135.235,4.015,202.82c0.236,7.226-8.096,9.015-12.43,5.426v25.211c8.347,0.937,8.335,13.841,0,14.78v25.77
	c3.384,0.394,6.508,2.762,6.538,7.147c0.154,22.436,0.31,44.871,0.463,67.307c0.659,96.941,1.261,193.883,1.334,290.827
	c0.034,46.042-0.049,92.086-0.375,138.128c-0.137,19.368,0.809,39.16-0.861,58.465c-1.336,15.433-5.188,30.606-10.666,45.069
	c-12.377,32.674-32.964,64.047-62.991,82.943c-1.194,0.751-2.429,1.389-3.644,2.083c5.838-0.369,11.657-0.965,17.429-1.905
	c15.886-2.585,31.143-7.505,45.102-14.839c0.287-0.758,0.666-1.509,1.24-2.226c30.592-38.24,35.654-89.218,40.163-136.172
	c0.914-9.519,15.887-9.583,14.967,0c-3.763,39.188-8.272,79.496-24.922,114.947c0.582-0.602,1.213-1.135,1.784-1.752
	c16.825-18.172,27.783-41.001,34.49-64.67c8.741-30.852,9.263-61.741,8.555-93.445c-1.218-54.56-1.761-109.136-2.207-163.707
	c-0.592-72.492-0.882-144.987-1.045-217.481c-0.186-82.469-0.192-164.938-0.08-247.407c0.113-83.544,0.35-167.088,0.704-250.63
	C1604.226,762.459,1604.641,686.761,1605.199,611.064z"/>
<path style="fill:#939FD1;" d="M1536.981,1184.834c0.336,0,0.633,0.059,0.945,0.094v-25.211c-1.453-1.205-2.459-3.012-2.537-5.426
	c-0.497-15.217-0.942-30.435-1.337-45.655c-1.768-68.126-2.637-136.274-3.042-204.421c-0.428-71.889-0.316-143.782,0.147-215.671
	c0.449-69.913,1.237-139.824,2.287-209.73c0.488-32.479,1.034-64.956,1.634-97.433c0.42-22.667-0.377-43.941-6.517-65.921
	c-12.648-45.27-41.627-89.215-86.161-108.081c-30.078-12.742-64.029-10.423-95.989-11.158c-41.197-0.947-82.405-1.332-123.612-1.383
	c-82.321-0.102-164.635,1.124-246.951,1.866c-82.943,0.749-165.905,1.004-248.834-0.994c-32.333-0.779-64.941-2.686-96.795,4.271
	c-28.624,6.251-54.602,19.665-74.609,41.312c-9.29,10.052-17.19,21.166-22.173,33.969c-4.853,12.469-8.002,25.585-10.425,38.722
	c-3.537,19.169-5.119,38.532-6.326,57.961c-0.293,4.717-4.07,7.109-7.757,7.187v11.689c0.303-0.033,0.6-0.055,0.858-0.038
	c0.69,0.046,1.381,0.135,2.059,0.277l0.078,0.022l0.937,0.395l0.927,0.392l0.093,0.052c1.124,0.665,2.02,1.56,2.685,2.685
	c0.251,0.596,0.503,1.192,0.754,1.787c0.25,0.929,0.26,1.859,0.16,2.788c0.201,0.964,0.161,1.929-0.142,2.894
	c-0.232,0.974-0.678,1.823-1.34,2.545c-0.527,0.814-1.228,1.457-2.1,1.927l-0.103,0.06c-0.608,0.299-1.233,0.572-1.874,0.79
	c-0.684,0.233-1.435,0.303-2.157,0.297l-0.036-0.002l-0.013-0.002l-0.787-0.106v37.951c4.258-0.919,9.271,1.4,9.152,7.008
	c-0.563,26.634-1.074,53.27-1.529,79.906c-1.843,108.023-2.803,216.06-3.111,324.098c-0.308,108.043,0.035,216.087,0.795,324.127
	c0.761,108.047,1.94,216.091,3.303,324.132c0.685,54.267,1.416,108.534,2.164,162.8c0.374,27.133,0.752,54.265,1.131,81.397
	c0.306,21.972,0.211,44.156,3.413,65.948c3.04,20.688,9.039,41.444,21.648,58.436c13.372,18.02,33.567,29.567,54.456,36.789
	c47.656,16.477,100.192,17.324,150.066,16.023c107.243-2.8,214.414-5.139,321.7-5.797c106.882-0.656,213.783-0.447,320.658-2.023
	c9.759-0.144,19.548-0.55,29.161-1.786c0.649-0.216,1.393-0.301,2.196-0.299c12.366-1.773,24.401-5.052,35.587-11.408
	c15.311-8.698,28.207-21.406,38.405-35.682c17.777-24.886,31.215-56.462,32.272-87.372c1.454-42.532,0.766-85.255,0.859-127.808
	c0.103-47.085,0.033-94.171-0.126-141.255c-0.314-93.383-0.99-186.762-1.63-280.143c-0.036-5.254,4.383-7.617,8.429-7.147v-25.77
	c-0.312,0.035-0.609,0.094-0.945,0.094C1527.334,1199.801,1527.35,1184.834,1536.981,1184.834z"/>
<path style="fill:#5B588D;" d="M1427.364,499.429c0.677-0.73,1.481-1.246,2.408-1.547c0.892-0.469,1.853-0.684,2.883-0.645
	c0.791,0,1.581,0,2.371,0c0.306,0.001,0.59,0.082,0.887,0.117v-7.613c-4.033,0.441-8.414-1.928-8.37-7.152
	c0.196-23.516,0.734-47.217-1.727-70.643c-1.778-16.919-5.572-34.244-15.461-48.29c-22.695-32.232-72.666-33.96-108.201-34.239
	c-73.606-0.577-147.233-0.208-220.842-0.424c-76.64-0.225-153.281-0.465-229.921-0.536c-34.485-0.031-68.999-0.433-103.478,0.254
	c-28.777,0.573-58.122,1.148-86.563,5.94c-2.676,0.451-4.894-0.409-6.514-1.876c-11.442,6.395-21.255,15.332-28.687,26.062
	c0.303,0.234,0.606,0.468,0.909,0.702c0.73,0.678,1.246,1.481,1.547,2.409c0.469,0.892,0.684,1.852,0.645,2.883
	c0.039,1.03-0.176,1.991-0.645,2.883c-0.302,0.928-0.818,1.731-1.547,2.408c-0.79,0.791-1.581,1.581-2.371,2.371
	c-0.934,0.927-2.034,1.569-3.302,1.924c-0.663,0.089-1.326,0.179-1.989,0.267c-0.632-0.003-1.24-0.093-1.832-0.242
	c-3.537,8.444-5.675,17.596-6.326,27.158c4.619-2.929,12.066-1.026,11.47,5.825c-5.051,58.063-6.268,116.433-3.478,174.652
	c1.746,36.435,2.058,88.553,42.818,104.138c20.517,7.845,43.613,6.49,65.18,6.758c26.082,0.325,52.164,0.65,78.245,0.975
	c104.741,1.305,209.482,2.611,314.223,3.916c3.914,0.048,6.21,2.553,6.944,5.492h12.087c0.631-3.088,2.964-5.768,7.035-5.768
	c4.078,0,6.408,2.68,7.037,5.768h28.292c0.408-3.345,2.77-6.331,7.134-6.167c35.421,1.33,70.872,1.716,106.312,1.091
	c21.388-0.378,43.154-0.195,64.455-2.544c16.608-1.832,36.151-6.679,46.643-20.822c11.826-15.941,15.799-39.284,18.106-58.472
	c3.234-26.896,3.017-54.136,2.398-81.172c-0.135-5.898,5.397-8.159,9.774-6.846v-16.3c-0.293,0.033-0.581,0.09-0.887,0.078
	c-0.79,0-1.581,0-2.371,0c-1.351-0.004-2.61-0.345-3.777-1.021c-0.505-0.39-1.01-0.78-1.515-1.171
	c-0.928-0.933-1.569-2.034-1.925-3.302c-0.089-0.663-0.178-1.326-0.267-1.99c-0.039-1.03,0.176-1.991,0.645-2.883
	C1426.118,500.91,1426.634,500.106,1427.364,499.429z"/>
<path style="fill:#A4BFE5;" d="M1145.762,423.735c9.963,0.275,19.926,0.55,29.889,0.825c43.321,1.196,86.642,2.391,129.963,3.588
	c25.53,0.704,51.06,1.41,76.591,2.114c0.036-4.621,0.073-9.243,0.11-13.864c-6.421,0.047-13.066-0.633-19.285-0.723
	c-17.896-0.26-35.792-0.521-53.687-0.781c-54.421-0.792-108.841-1.584-163.262-2.376c-62.959-0.917-125.919-1.832-188.879-2.749
	c-52.081-0.758-104.161-1.516-156.242-2.274c-21.784-0.317-43.567-0.634-65.351-0.951c-3.068-0.045-5.15-1.597-6.264-3.681h-28.444
	c-1.2,1.563-3.063,2.645-5.634,2.645c-2.574,0-4.439-1.082-5.638-2.645h-21.863c-0.686,70.109-1.372,140.218-2.057,210.327
	c7.357,0.209,14.717,0.355,22.074,0.554c0-55.309,0-110.619,0-165.928c0-9.647,14.967-9.631,14.967,0c0,55.435,0,110.869,0,166.304
	c24.142,0.629,48.283,1.308,72.427,1.818c136.955,2.892,273.95,3.867,410.933,2.958c3.057-0.021,5.136,1.472,6.254,3.517h13.227
	c1.009-2.395,3.178-4.253,6.56-4.253c3.387,0,5.557,1.858,6.563,4.253h22.032c-0.464-4.082,1.871-8.288,7.084-7.796
	c44.215,4.173,88.683,4.24,132.907,0.305c0.129-16.241,0.258-32.483,0.388-48.723c0.32-40.324,0.641-80.648,0.961-120.971
	c-8.283-0.229-16.566-0.457-24.849-0.686c-43.321-1.195-86.641-2.391-129.963-3.588c-27.17-0.75-54.341-1.5-81.511-2.25
	C1136.134,438.436,1136.128,423.469,1145.762,423.735z"/>
<path style="fill:#B5C9E9;" d="M776.511,1038.141c0.375-29.765,0.705-59.589-0.055-89.351c-0.058-2.273-0.115-4.549-0.24-6.82
	c-0.049-0.896-0.578-3.608-0.33-2.844c-1.405-5.141-3.591-10.205-8.665-12.721c-5.595-2.774-13.02-1.888-19.078-1.998
	c-26.505-0.485-53.008-1.149-79.518-1.379c-13.087-0.114-29.89-2.349-39.482,8.301c-11.819,13.122-11.329,35.976-11.391,52.338
	c-0.017,4.52-3.316,6.891-6.811,7.172v14.067c3.662,0.102,7.267,2.497,7.303,7.209c0.062,8.194,0.114,16.389,0.151,24.583
	c0.048,10.922-1.168,23.449,5.896,32.681c5.117,6.687,13.58,9.099,21.658,9.338c16.915,0.502,33.912,0.067,50.836,0.137
	c15.274,0.063,30.548,0.141,45.822,0.203c10.809,0.044,27.332,3.226,31.537-9.813
	C777.266,1059.565,776.385,1048.176,776.511,1038.141z"/>
<path style="fill:#B5C9E9;" d="M995.221,1038.141c0.375-29.765,0.704-59.589-0.055-89.351c-0.058-2.273-0.116-4.549-0.241-6.82
	c-0.049-0.897-0.579-3.615-0.33-2.841c-1.405-5.141-3.591-10.207-8.666-12.724c-5.595-2.774-13.02-1.888-19.077-1.998
	c-26.506-0.485-53.009-1.149-79.519-1.379c-13.087-0.114-29.89-2.349-39.482,8.301c-11.819,13.122-11.328,35.976-11.39,52.338
	c-0.021,5.545-4.971,7.88-9.174,7.048v14.467c4.289-1.105,9.622,1.191,9.666,6.933c0.062,8.194,0.114,16.389,0.151,24.583
	c0.048,10.922-1.168,23.449,5.896,32.681c5.117,6.687,13.58,9.099,21.659,9.338c16.916,0.502,33.912,0.067,50.837,0.137
	c15.274,0.063,30.548,0.141,45.822,0.203c10.809,0.044,27.331,3.226,31.536-9.813
	C995.976,1059.565,995.095,1048.176,995.221,1038.141z"/>
<path style="fill:#B5C9E9;" d="M776.511,1263.533c0.375-29.765,0.705-59.589-0.055-89.35c-0.058-2.274-0.115-4.549-0.24-6.82
	c-0.049-0.896-0.579-3.609-0.33-2.842c-1.405-5.142-3.591-10.207-8.665-12.723c-5.595-2.773-13.02-1.887-19.078-1.998
	c-26.505-0.485-53.008-1.149-79.518-1.38c-13.087-0.113-29.89-2.349-39.482,8.301c-11.819,13.122-11.329,35.976-11.391,52.339
	c-0.017,4.519-3.316,6.89-6.811,7.172v14.066c3.662,0.102,7.267,2.498,7.303,7.21c0.062,8.194,0.114,16.388,0.151,24.583
	c0.048,10.922-1.168,23.449,5.896,32.681c5.117,6.688,13.58,9.099,21.658,9.339c16.915,0.501,33.912,0.066,50.836,0.137
	c15.274,0.064,30.548,0.141,45.822,0.203c10.809,0.044,27.332,3.227,31.537-9.813
	C777.266,1284.957,776.385,1273.569,776.511,1263.533z"/>
<path style="fill:#B5C9E9;" d="M995.221,1263.533c0.375-29.765,0.704-59.589-0.055-89.35c-0.058-2.274-0.116-4.549-0.241-6.82
	c-0.049-0.898-0.58-3.615-0.329-2.839c-1.405-5.143-3.591-10.209-8.667-12.726c-5.595-2.773-13.02-1.887-19.077-1.998
	c-26.506-0.485-53.009-1.149-79.519-1.38c-13.087-0.113-29.89-2.349-39.482,8.301c-11.819,13.122-11.328,35.976-11.39,52.339
	c-0.021,5.544-4.971,7.879-9.174,7.048v14.467c4.289-1.105,9.622,1.191,9.666,6.934c0.062,8.194,0.114,16.388,0.151,24.583
	c0.048,10.922-1.168,23.449,5.896,32.681c5.117,6.688,13.58,9.099,21.659,9.339c16.916,0.501,33.912,0.066,50.837,0.137
	c15.274,0.064,30.548,0.141,45.822,0.203c10.809,0.044,27.331,3.227,31.536-9.813
	C995.976,1284.957,995.095,1273.569,995.221,1263.533z"/>
<path style="fill:#B5C9E9;" d="M776.511,1485.986c0.375-29.765,0.705-59.589-0.055-89.351c-0.058-2.274-0.115-4.549-0.24-6.82
	c-0.049-0.896-0.579-3.611-0.33-2.841c-1.405-5.142-3.591-10.207-8.666-12.723c-5.595-2.774-13.02-1.888-19.078-1.998
	c-26.505-0.485-53.008-1.15-79.518-1.38c-13.087-0.114-29.89-2.349-39.482,8.301c-11.819,13.122-11.329,35.976-11.391,52.338
	c-0.017,4.52-3.316,6.891-6.811,7.173v14.066c3.662,0.102,7.267,2.497,7.303,7.21c0.062,8.194,0.114,16.389,0.151,24.583
	c0.048,10.922-1.168,23.449,5.896,32.681c5.117,6.687,13.58,9.099,21.658,9.338c16.915,0.502,33.912,0.067,50.836,0.137
	c15.274,0.063,30.548,0.141,45.822,0.203c10.809,0.044,27.332,3.226,31.537-9.813
	C777.266,1507.41,776.385,1496.022,776.511,1485.986z"/>
<path style="fill:#B5C9E9;" d="M995.221,1485.986c0.375-29.765,0.704-59.589-0.055-89.351c-0.058-2.274-0.116-4.549-0.241-6.82
	c-0.049-0.897-0.581-3.617-0.329-2.839c-1.405-5.143-3.591-10.209-8.667-12.726c-5.595-2.774-13.02-1.888-19.077-1.998
	c-26.506-0.485-53.009-1.15-79.519-1.38c-13.087-0.114-29.89-2.349-39.482,8.301c-11.819,13.122-11.328,35.976-11.39,52.338
	c-0.021,5.544-4.971,7.88-9.174,7.048v14.467c4.289-1.106,9.622,1.191,9.666,6.933c0.062,8.194,0.114,16.389,0.151,24.583
	c0.048,10.922-1.168,23.449,5.896,32.681c5.117,6.687,13.58,9.099,21.659,9.338c16.916,0.502,33.912,0.067,50.837,0.137
	c15.274,0.063,30.548,0.141,45.822,0.203c10.809,0.044,27.331,3.226,31.536-9.813
	C995.976,1507.41,995.095,1496.022,995.221,1485.986z"/>
<path style="fill:#B5C9E9;" d="M1209.878,1038.141c0.375-29.765,0.704-59.589-0.055-89.351c-0.058-2.273-0.115-4.549-0.24-6.82
	c-0.049-0.897-0.579-3.615-0.329-2.841c-1.405-5.141-3.591-10.207-8.666-12.724c-5.595-2.774-13.02-1.888-19.077-1.998
	c-26.506-0.485-53.009-1.149-79.519-1.379c-13.087-0.114-29.89-2.349-39.482,8.301c-11.818,13.122-11.328,35.976-11.39,52.338
	c-0.018,4.811-3.751,7.217-7.484,7.227v14.028c3.881-0.194,7.938,2.191,7.975,7.193c0.062,8.194,0.115,16.389,0.151,24.583
	c0.048,10.922-1.167,23.449,5.896,32.681c5.117,6.687,13.58,9.099,21.658,9.338c16.916,0.502,33.912,0.067,50.837,0.137
	c15.274,0.063,30.548,0.141,45.822,0.203c10.809,0.044,27.332,3.226,31.537-9.813
	C1210.633,1059.565,1209.752,1048.176,1209.878,1038.141z"/>
<path style="fill:#B5C9E9;" d="M1209.878,1263.533c0.375-29.765,0.704-59.589-0.055-89.35c-0.058-2.274-0.115-4.549-0.24-6.82
	c-0.049-0.898-0.58-3.615-0.329-2.839c-1.405-5.143-3.591-10.209-8.666-12.726c-5.595-2.773-13.02-1.887-19.077-1.998
	c-26.506-0.485-53.009-1.149-79.519-1.38c-13.087-0.113-29.89-2.349-39.482,8.301c-11.818,13.122-11.328,35.976-11.39,52.339
	c-0.018,4.81-3.751,7.216-7.484,7.226v14.029c3.881-0.193,7.938,2.192,7.975,7.194c0.062,8.194,0.115,16.388,0.151,24.583
	c0.048,10.922-1.167,23.449,5.896,32.681c5.117,6.688,13.58,9.099,21.658,9.339c16.916,0.501,33.912,0.066,50.837,0.137
	c15.274,0.064,30.548,0.141,45.822,0.203c10.809,0.044,27.332,3.227,31.537-9.813
	C1210.633,1284.957,1209.752,1273.569,1209.878,1263.533z"/>
<path style="fill:#B5C9E9;" d="M1209.878,1485.986c0.375-29.765,0.704-59.589-0.055-89.351c-0.058-2.274-0.115-4.549-0.24-6.82
	c-0.049-0.897-0.581-3.617-0.329-2.839c-1.405-5.143-3.591-10.209-8.666-12.726c-5.595-2.774-13.02-1.888-19.077-1.998
	c-26.506-0.485-53.009-1.15-79.519-1.38c-13.087-0.114-29.89-2.349-39.482,8.301c-11.818,13.122-11.328,35.976-11.39,52.338
	c-0.018,4.81-3.751,7.217-7.484,7.227v14.028c3.881-0.193,7.938,2.192,7.975,7.194c0.062,8.194,0.115,16.389,0.151,24.583
	c0.048,10.922-1.167,23.449,5.896,32.681c5.117,6.687,13.58,9.099,21.658,9.338c16.916,0.502,33.912,0.067,50.837,0.137
	c15.274,0.063,30.548,0.141,45.822,0.203c10.809,0.044,27.332,3.226,31.537-9.813
	C1210.633,1507.41,1209.752,1496.022,1209.878,1485.986z"/>
<path style="fill:#B5C9E9;" d="M1428.588,1038.141c0.375-29.765,0.704-59.589-0.055-89.351c-0.058-2.273-0.116-4.549-0.24-6.82
	c-0.049-0.896-0.579-3.608-0.33-2.844c-1.405-5.141-3.591-10.205-8.666-12.721c-5.595-2.774-13.02-1.888-19.077-1.998
	c-26.505-0.485-53.009-1.149-79.519-1.379c-13.087-0.114-29.889-2.349-39.482,8.301c-11.819,13.122-11.328,35.976-11.39,52.338
	c-0.025,6.53-6.885,8.617-11.308,6.305v16.109c4.376-2.728,11.749-0.721,11.8,6.035c0.062,8.194,0.114,16.389,0.151,24.583
	c0.048,10.922-1.168,23.449,5.897,32.681c5.117,6.687,13.58,9.099,21.658,9.338c16.916,0.502,33.912,0.067,50.837,0.137
	c15.274,0.063,30.548,0.141,45.822,0.203c10.808,0.044,27.331,3.226,31.537-9.813
	C1429.343,1059.565,1428.461,1048.176,1428.588,1038.141z"/>
<path style="fill:#B5C9E9;" d="M619.439,825.309c7.94,10.466,23.682,8.501,35.24,8.541c26.42,0.091,52.84,0.182,79.26,0.272
	c6.604,0.023,13.21,0.083,19.815,0.068c4.451-0.01,9.231,0.191,13.443-1.503c8.997-3.618,8.757-16.876,9.319-24.952
	c0.664-9.532,0.85-23.449-9.297-28.432c-5.674-2.787-13.275-1.896-19.412-2c-6.139-0.105-12.279-0.209-18.418-0.313
	c-26.194-0.445-52.388-0.891-78.582-1.336c-4.702-0.08-7.092-3.685-7.205-7.336h-7.366c-9.67,0-17.972,5.488-22.23,13.462
	c0.997,1.239,1.587,2.742,1.372,4.36C613.706,798.769,611.103,814.323,619.439,825.309z"/>
<path style="fill:#B5C9E9;" d="M834.992,825.309c7.941,10.466,23.682,8.501,35.241,8.541c26.42,0.091,52.84,0.182,79.26,0.272
	c6.604,0.023,13.21,0.083,19.814,0.068c4.452-0.01,9.231,0.191,13.444-1.503c8.997-3.618,8.757-16.876,9.319-24.952
	c0.663-9.532,0.849-23.449-9.298-28.432c-5.674-2.787-13.275-1.896-19.411-2c-6.14-0.105-12.279-0.209-18.418-0.313
	c-26.194-0.445-52.388-0.891-78.581-1.336c-4.702-0.08-7.092-3.685-7.205-7.336h-6.573c-9.931,0-18.437,5.775-22.577,14.102
	c0.705,1.106,1.105,2.37,0.926,3.72C829.259,798.769,826.656,814.323,834.992,825.309z"/>
<path style="fill:#7AC193;" d="M1052.444,786.14c-1.674,12.63-4.277,28.184,4.059,39.17c7.941,10.466,23.683,8.501,35.241,8.541
	c26.42,0.091,52.84,0.182,79.26,0.272c6.604,0.023,13.21,0.083,19.815,0.068c4.451-0.01,9.231,0.191,13.443-1.503
	c8.997-3.618,8.757-16.876,9.319-24.952c0.663-9.532,0.849-23.449-9.297-28.432c-5.674-2.787-13.274-1.896-19.411-2
	c-6.139-0.105-12.279-0.209-18.417-0.313c-26.194-0.445-52.388-0.891-78.582-1.336c-4.702-0.08-7.092-3.685-7.205-7.336h-11.737
	c-8.703,0-16.374,4.4-20.925,11.092C1050.636,780.628,1052.833,783.206,1052.444,786.14z"/>
<path style="fill:#EA4E57;" d="M1262.807,779.533c2.521,1.262,4.579,3.762,4.203,6.606c-1.674,12.63-4.277,28.184,4.059,39.17
	c7.94,10.466,23.682,8.501,35.24,8.541c26.42,0.091,52.84,0.182,79.26,0.272c6.605,0.023,13.21,0.083,19.815,0.068
	c4.452-0.01,9.231,0.191,13.443-1.503c8.997-3.618,8.757-16.876,9.319-24.952c0.664-9.532,0.85-23.449-9.297-28.432
	c-5.674-2.787-13.275-1.896-19.412-2c-6.139-0.105-12.278-0.209-18.417-0.313c-26.194-0.445-52.388-0.891-78.582-1.336
	c-4.702-0.08-7.091-3.685-7.205-7.336h-11.417C1275.059,768.317,1267.348,772.77,1262.807,779.533z"/>
<path style="fill:#B5C9E9;" d="M1428.588,1263.533c0.375-29.765,0.704-59.589-0.055-89.35c-0.058-2.274-0.116-4.549-0.24-6.82
	c-0.049-0.896-0.579-3.609-0.33-2.842c-1.405-5.142-3.591-10.207-8.666-12.723c-5.595-2.773-13.02-1.887-19.077-1.998
	c-26.505-0.485-53.009-1.149-79.519-1.38c-13.087-0.113-29.889-2.349-39.482,8.301c-11.819,13.122-11.328,35.976-11.39,52.339
	c-0.025,6.529-6.885,8.617-11.308,6.305v16.108c4.376-2.727,11.749-0.721,11.8,6.035c0.062,8.194,0.114,16.388,0.151,24.583
	c0.048,10.922-1.168,23.449,5.897,32.681c5.117,6.688,13.58,9.099,21.658,9.339c16.916,0.501,33.912,0.066,50.837,0.137
	c15.274,0.064,30.548,0.141,45.822,0.203c10.808,0.044,27.331,3.227,31.537-9.813
	C1429.343,1284.957,1428.461,1273.569,1428.588,1263.533z"/>
<path style="fill:#B5C9E9;" d="M776.511,1708.439c0.375-29.766,0.705-59.589-0.055-89.351c-0.058-2.274-0.115-4.549-0.24-6.82
	c-0.049-0.896-0.579-3.609-0.33-2.843c-1.405-5.141-3.591-10.206-8.665-12.721c-5.595-2.774-13.02-1.888-19.078-1.999
	c-26.505-0.484-53.008-1.149-79.518-1.379c-13.087-0.114-29.89-2.349-39.482,8.301c-11.819,13.122-11.329,35.976-11.391,52.338
	c-0.015,4.036-2.651,6.357-5.701,7.014v14.316c3.248,0.512,6.162,2.885,6.194,7.118c0.062,8.194,0.114,16.389,0.151,24.583
	c0.048,10.923-1.168,23.449,5.896,32.681c5.117,6.687,13.58,9.099,21.658,9.338c16.915,0.502,33.912,0.066,50.836,0.137
	c15.274,0.063,30.548,0.141,45.822,0.203c10.809,0.043,27.332,3.226,31.537-9.814
	C777.266,1729.863,776.385,1718.475,776.511,1708.439z"/>
<path style="fill:#B5C9E9;" d="M995.221,1708.439c0.375-29.766,0.704-59.589-0.055-89.351c-0.058-2.274-0.116-4.549-0.241-6.82
	c-0.049-0.897-0.58-3.615-0.329-2.84c-1.405-5.143-3.591-10.208-8.667-12.724c-5.595-2.774-13.02-1.888-19.077-1.999
	c-26.506-0.484-53.009-1.149-79.519-1.379c-13.087-0.114-29.89-2.349-39.482,8.301c-11.819,13.122-11.328,35.976-11.39,52.338
	c-0.019,5.062-4.148,7.437-8.065,7.184v14.117c4.046-0.476,8.517,1.894,8.557,7.147c0.062,8.194,0.114,16.389,0.151,24.583
	c0.048,10.923-1.168,23.449,5.896,32.681c5.117,6.687,13.58,9.099,21.659,9.338c16.916,0.502,33.912,0.066,50.837,0.137
	c15.274,0.063,30.548,0.141,45.822,0.203c10.809,0.043,27.331,3.226,31.536-9.814
	C995.976,1729.863,995.095,1718.475,995.221,1708.439z"/>
<path style="fill:#B5C9E9;" d="M1209.878,1708.439c0.375-29.766,0.704-59.589-0.055-89.351c-0.058-2.274-0.115-4.549-0.24-6.82
	c-0.049-0.897-0.58-3.615-0.329-2.84c-1.405-5.143-3.591-10.208-8.666-12.724c-5.595-2.774-13.02-1.888-19.077-1.999
	c-26.506-0.484-53.009-1.149-79.519-1.379c-13.087-0.114-29.89-2.349-39.482,8.301c-11.818,13.122-11.328,35.976-11.39,52.338
	c-0.016,4.332-3.047,6.699-6.375,7.138v14.137c3.506,0.274,6.833,2.65,6.867,7.173c0.062,8.194,0.115,16.389,0.151,24.583
	c0.048,10.923-1.167,23.449,5.896,32.681c5.117,6.687,13.58,9.099,21.658,9.338c16.916,0.502,33.912,0.066,50.837,0.137
	c15.274,0.063,30.548,0.141,45.822,0.203c10.809,0.043,27.332,3.226,31.537-9.814
	C1210.633,1729.863,1209.752,1718.475,1209.878,1708.439z"/>
<path style="fill:#B5C9E9;" d="M1428.383,1399.873c-0.047-3.21-0.093-6.421-0.196-9.631c-0.03-0.927-0.098-1.861-0.109-2.789
	c-2.511-7.08-4.921-12.874-13.129-14.515c-7.23-1.445-15.404-0.694-22.75-0.837c-14.99-0.291-29.979-0.615-44.969-0.871
	c-14.52-0.247-29.14-0.842-43.658-0.396c-6.659,0.204-13.472,1.264-18.901,5.187c-15.486,11.189-14.78,38.679-14.843,55.491
	c-0.025,6.467-6.749,8.569-11.175,6.365l0.035,10.429c0.637-0.169,1.312-0.288,2.067-0.288c9.646,0,9.631,14.967,0,14.967
	c-0.735,0-1.394-0.112-2.018-0.272l0.047,13.864c4.417-2.514,11.529-0.447,11.535,6.191c0.001,1.292,0.002,2.585,0.003,3.877
	c0.049,61.209,0.098,122.419,0.145,183.629c0.01,12.229,0.019,24.46,0.027,36.689c0.007,10.99-1.178,23.501,5.873,32.714
	c5.454,7.126,14.427,9.228,22.958,9.353c18.157,0.268,36.332,0.064,54.491,0.143c17.644,0.077,35.293,0.29,52.937,0.224
	c6.478-0.024,14.206,0.104,17.931-6.174c2.509-4.228,3.148-9.896,3.442-14.698c0.935-15.26,0.355-30.743,0.428-46.021
	c0.156-32.691,0.233-65.382,0.28-98.072C1428.923,1522.921,1429.297,1461.378,1428.383,1399.873z"/>
<path style="fill:#321C27;" d="M1186.11,618.895c-136.983,0.909-273.977-0.066-410.933-2.958
	c-24.144-0.51-48.285-1.188-72.427-1.818c0-55.435,0-110.869,0-166.304c0-9.631-14.967-9.647-14.967,0c0,55.309,0,110.619,0,165.928
	c-7.357-0.199-14.717-0.344-22.074-0.554c0.685-70.109,1.371-140.218,2.057-210.327c0-0.032,0-0.065,0.001-0.097
	c0.094-9.634-14.873-9.641-14.967,0c-0.71,72.573-1.419,145.145-2.129,217.718c-0.04,4.131,3.464,7.367,7.483,7.484
	c136.929,3.967,273.91,6.051,410.896,6.217c39.02,0.047,78.04-0.064,117.06-0.323c6.578-0.044,8.664-7.04,6.254-11.45
	C1191.246,620.367,1189.167,618.874,1186.11,618.895z"/>
<path style="fill:#321C27;" d="M1212.151,618.159c-3.381,0-5.551,1.858-6.56,4.253c-1.864,4.426,0.3,10.715,6.56,10.715
	c6.249,0,8.424-6.289,6.563-10.715C1217.707,620.017,1215.537,618.159,1212.151,618.159z"/>
<path style="fill:#321C27;" d="M695.267,405.508c2.57,0,4.434-1.082,5.634-2.645c3.295-4.294,1.439-12.322-5.634-12.322
	c-7.06,0-8.931,8.028-5.638,12.322C690.828,404.426,692.693,405.508,695.267,405.508z"/>
<path style="fill:#321C27;" d="M1389.86,401.1c-21.784-0.317-43.567-0.635-65.35-0.951c-52.081-0.758-104.161-1.517-156.242-2.275
	c-62.96-0.916-125.919-1.833-188.879-2.75c-54.421-0.792-108.841-1.584-163.262-2.376c-26.379-0.384-53.014-1.882-79.392-1.156
	l-1.126-0.016c-6.568-0.096-8.65,6.823-6.264,11.286c1.114,2.084,3.195,3.636,6.264,3.681c21.784,0.316,43.567,0.634,65.351,0.951
	c52.081,0.758,104.161,1.517,156.242,2.274c62.96,0.917,125.919,1.832,188.879,2.749c54.421,0.792,108.841,1.584,163.262,2.376
	c17.896,0.26,35.791,0.521,53.687,0.781c6.219,0.09,12.863,0.77,19.285,0.723c-0.037,4.62-0.074,9.242-0.11,13.864
	c-25.53-0.704-51.061-1.41-76.591-2.114c-43.321-1.196-86.642-2.392-129.963-3.588c-9.963-0.275-19.926-0.55-29.889-0.825
	c-9.634-0.266-9.628,14.701,0,14.967c27.17,0.75,54.341,1.5,81.511,2.25c43.321,1.196,86.642,2.392,129.963,3.588
	c8.283,0.229,16.567,0.457,24.849,0.686c-0.32,40.323-0.641,80.647-0.961,120.971c-0.129,16.241-0.258,32.482-0.388,48.723
	c-44.223,3.935-88.692,3.868-132.907-0.305c-5.213-0.492-7.549,3.713-7.084,7.796c0.39,3.424,2.742,6.761,7.084,7.171
	c46.691,4.407,93.668,4.292,140.336-0.342c4.052-0.403,7.449-3.103,7.484-7.484c0.515-64.82,1.03-129.639,1.545-194.46
	c0.049-6.238,0.099-12.477,0.149-18.714C1397.376,404.495,1393.887,401.159,1389.86,401.1z"/>
<path style="fill:#321C27;" d="M1119.696,697.865c-104.741-1.305-209.482-2.611-314.223-3.916
	c-26.082-0.325-52.163-0.65-78.245-0.975c-21.567-0.268-44.663,1.087-65.18-6.758c-40.76-15.584-41.072-67.702-42.818-104.138
	c-2.79-58.219-1.573-116.589,3.478-174.652c0.595-6.851-6.851-8.754-11.47-5.825c-1.849,1.173-3.26,3.098-3.497,5.825
	c-4.66,53.565-6.064,107.39-4.055,161.122c1.451,38.809-0.245,91.034,32.074,119.042c16.834,14.589,38.853,18.638,60.475,19.734
	c25.584,1.297,51.334,0.87,76.947,1.189c54.233,0.676,108.467,1.352,162.7,2.028c61.272,0.763,122.543,1.527,183.814,2.291
	c5.723,0.071,8.02-5.173,6.944-9.475C1125.905,700.417,1123.609,697.913,1119.696,697.865z"/>
<path style="fill:#321C27;" d="M621.384,374.417c1.268-0.356,2.368-0.997,3.302-1.924c0.79-0.791,1.581-1.581,2.371-2.371
	c0.73-0.677,1.246-1.48,1.547-2.408c0.469-0.892,0.684-1.853,0.645-2.883c0.039-1.031-0.176-1.992-0.645-2.883
	c-0.302-0.928-0.818-1.731-1.547-2.409c-0.303-0.234-0.606-0.469-0.909-0.702c-0.202-0.156-0.404-0.312-0.606-0.468
	c-1.167-0.677-2.427-1.018-3.777-1.022c-0.663,0.089-1.326,0.178-1.99,0.267c-1.268,0.355-2.368,0.997-3.302,1.924
	c-0.79,0.79-1.581,1.58-2.371,2.371c-0.73,0.678-1.245,1.481-1.548,2.409c-0.469,0.892-0.683,1.852-0.644,2.883
	c-0.039,1.03,0.176,1.992,0.644,2.883c0.302,0.928,0.818,1.731,1.548,2.409c0.505,0.39,1.01,0.78,1.515,1.17
	c0.621,0.36,1.272,0.61,1.945,0.779c0.592,0.15,1.2,0.24,1.832,0.242C620.058,374.596,620.721,374.506,621.384,374.417z"/>
<path style="fill:#321C27;" d="M654.835,332.775c1.62,1.467,3.839,2.326,6.514,1.876c28.44-4.793,57.786-5.367,86.563-5.94
	c34.479-0.686,68.993-0.285,103.478-0.254c76.641,0.071,153.281,0.311,229.921,0.536c73.609,0.216,147.236-0.153,220.842,0.424
	c35.535,0.278,85.507,2.007,108.201,34.239c9.89,14.046,13.684,31.372,15.461,48.29c2.462,23.427,1.923,47.127,1.727,70.643
	c-0.043,5.225,4.337,7.594,8.37,7.152c3.403-0.373,6.56-2.74,6.597-7.152c0.184-21.984,0.611-44.081-1.285-66.008
	c-1.513-17.495-4.471-35.114-12.332-50.985c-17.697-35.727-58.113-46.252-94.792-49.66c-34.343-3.191-69.272-1.504-103.717-1.554
	c-37.785-0.055-75.57-0.149-113.356-0.254c-78.737-0.219-157.474-0.49-236.211-0.604c-41.377-0.06-82.781-0.482-124.155,0.073
	c-33.036,0.443-66.645,1.12-99.29,6.621C650.581,321.362,650.741,329.069,654.835,332.775z"/>
<path style="fill:#321C27;" d="M1432.656,497.237c-1.03-0.039-1.991,0.176-2.883,0.645c-0.928,0.301-1.731,0.817-2.408,1.547
	c-0.73,0.678-1.246,1.481-1.547,2.408c-0.469,0.892-0.684,1.853-0.645,2.883c0.089,0.663,0.178,1.327,0.267,1.99
	c0.356,1.268,0.997,2.369,1.925,3.302c0.505,0.39,1.01,0.78,1.515,1.171c1.167,0.677,2.426,1.017,3.777,1.021
	c0.791,0,1.581,0,2.371,0c0.306,0.011,0.593-0.045,0.887-0.078c0.696-0.078,1.37-0.236,1.997-0.566
	c0.928-0.302,1.731-0.817,2.408-1.548c0.73-0.678,1.246-1.481,1.548-2.408c0.469-0.892,0.683-1.853,0.645-2.884
	c-0.089-0.663-0.178-1.326-0.267-1.989c-0.356-1.268-0.997-2.368-1.925-3.302c-0.505-0.39-1.01-0.78-1.514-1.17
	c-0.903-0.524-1.878-0.784-2.891-0.905c-0.297-0.035-0.581-0.117-0.887-0.117C1434.237,497.237,1433.446,497.237,1432.656,497.237z"
	/>
<path style="fill:#321C27;" d="M1145.762,697.589c-4.071,0-6.404,2.68-7.035,5.768c-0.862,4.217,1.467,9.199,7.035,9.199
	c5.559,0,7.894-4.982,7.037-9.199C1152.17,700.269,1149.84,697.589,1145.762,697.589z"/>
<path style="fill:#321C27;" d="M1426.139,535.271c0.62,27.036,0.836,54.276-2.398,81.172c-2.307,19.189-6.28,42.531-18.106,58.472
	c-10.491,14.142-30.035,18.99-46.643,20.822c-21.301,2.349-43.067,2.166-64.455,2.544c-35.441,0.625-70.892,0.239-106.312-1.091
	c-4.364-0.164-6.726,2.822-7.134,6.167c-0.493,4.039,1.874,8.603,7.134,8.8c33.773,1.268,67.574,1.68,101.367,1.172
	c23.023-0.347,46.473-0.096,69.4-2.625c19.346-2.133,40.153-7.243,54.19-21.68c14.565-14.979,20.25-38.948,23.593-58.903
	c5.239-31.276,5.054-63.245,4.33-94.85c-0.086-3.74-2.407-6.011-5.193-6.846C1431.536,527.112,1426.004,529.373,1426.139,535.271z"
	/>
<path style="fill:#321C27;" d="M1302.438,775.654c26.194,0.445,52.388,0.891,78.582,1.336c6.139,0.104,12.278,0.209,18.417,0.313
	c6.137,0.104,13.737-0.787,19.412,2c10.147,4.984,9.961,18.9,9.297,28.432c-0.562,8.076-0.322,21.335-9.319,24.952
	c-4.212,1.694-8.992,1.493-13.443,1.503c-6.604,0.015-13.21-0.046-19.815-0.068c-26.42-0.091-52.84-0.182-79.26-0.272
	c-11.558-0.04-27.3,1.925-35.24-8.541c-8.336-10.986-5.733-26.54-4.059-39.17c0.377-2.844-1.681-5.345-4.203-6.606
	c-1.062-0.531-2.196-0.866-3.281-0.877c-4.482-0.046-6.955,3.493-7.483,7.484c-1.943,14.663-3.219,29.966,4.086,43.464
	c6.311,11.661,17.619,17.242,30.409,18.66c14.635,1.624,29.834,0.589,44.541,0.639c16.512,0.057,33.024,0.114,49.537,0.171
	c13.188,0.045,28.611,2.247,41.421-1.662c11.975-3.654,17.849-14.183,19.643-25.945c1.974-12.952,3.474-27.483-1.878-39.813
	c-5.52-12.717-16.422-18.329-29.833-19.089c-17.767-1.005-35.711-0.655-53.505-0.958c-18.008-0.306-36.016-0.612-54.025-0.918
	c-4.934-0.084-7.324,3.799-7.205,7.631C1295.347,771.969,1297.737,775.574,1302.438,775.654z"/>
<path style="fill:#321C27;" d="M1195.403,762.563c-17.767-1.005-35.71-0.655-53.505-0.958c-18.008-0.306-36.016-0.612-54.025-0.918
	c-4.934-0.084-7.324,3.799-7.205,7.631c0.113,3.651,2.503,7.257,7.205,7.336c26.194,0.445,52.388,0.891,78.582,1.336
	c6.139,0.104,12.278,0.209,18.417,0.313c6.137,0.104,13.737-0.787,19.411,2c10.147,4.984,9.961,18.9,9.297,28.432
	c-0.562,8.076-0.322,21.335-9.319,24.952c-4.212,1.694-8.992,1.493-13.443,1.503c-6.605,0.015-13.211-0.046-19.815-0.068
	c-26.42-0.091-52.84-0.182-79.26-0.272c-11.558-0.04-27.301,1.925-35.241-8.541c-8.336-10.986-5.732-26.54-4.059-39.17
	c0.389-2.933-1.809-5.512-4.439-6.731c-0.993-0.461-2.042-0.742-3.045-0.753c-4.482-0.046-6.955,3.493-7.484,7.484
	c-1.944,14.663-3.219,29.966,4.086,43.464c6.311,11.661,17.619,17.242,30.409,18.66c14.634,1.624,29.833,0.589,44.54,0.639
	c16.512,0.057,33.025,0.114,49.537,0.171c13.188,0.045,28.612,2.247,41.422-1.662c11.975-3.654,17.85-14.183,19.643-25.945
	c1.975-12.952,3.474-27.483-1.878-39.813C1219.716,768.934,1208.814,763.322,1195.403,762.563z"/>
<path style="fill:#321C27;" d="M850.461,848.263c14.635,1.624,29.834,0.589,44.541,0.639c16.512,0.057,33.025,0.114,49.537,0.171
	c13.188,0.045,28.611,2.247,41.421-1.662c11.975-3.654,17.849-14.183,19.643-25.945c1.974-12.952,3.474-27.483-1.878-39.813
	c-5.52-12.717-16.422-18.329-29.833-19.089c-17.767-1.005-35.711-0.655-53.505-0.958c-18.009-0.306-36.016-0.612-54.025-0.918
	c-4.934-0.084-7.324,3.799-7.205,7.631c0.113,3.651,2.503,7.257,7.205,7.336c26.193,0.445,52.387,0.891,78.581,1.336
	c6.14,0.104,12.279,0.209,18.418,0.313c6.136,0.104,13.737-0.787,19.411,2c10.147,4.984,9.961,18.9,9.298,28.432
	c-0.562,8.076-0.322,21.335-9.319,24.952c-4.213,1.694-8.992,1.493-13.444,1.503c-6.604,0.015-13.21-0.046-19.814-0.068
	c-26.42-0.091-52.84-0.182-79.26-0.272c-11.559-0.04-27.3,1.925-35.241-8.541c-8.336-10.986-5.733-26.54-4.059-39.17
	c0.179-1.35-0.221-2.614-0.926-3.72c-1.405-2.205-4.12-3.738-6.558-3.764c-4.482-0.046-6.955,3.493-7.483,7.484
	c-1.943,14.663-3.219,29.966,4.087,43.464C826.364,841.264,837.672,846.845,850.461,848.263z"/>
<path style="fill:#321C27;" d="M634.908,848.263c14.635,1.624,29.834,0.589,44.54,0.639c16.513,0.057,33.025,0.114,49.538,0.171
	c13.188,0.045,28.611,2.247,41.421-1.662c11.975-3.654,17.849-14.183,19.642-25.945c1.975-12.952,3.475-27.483-1.877-39.813
	c-5.52-12.717-16.422-18.329-29.834-19.089c-17.768-1.005-35.711-0.655-53.505-0.958c-18.008-0.306-36.016-0.612-54.025-0.918
	c-4.934-0.084-7.324,3.799-7.205,7.631c0.113,3.651,2.503,7.257,7.205,7.336c26.194,0.445,52.388,0.891,78.582,1.336
	c6.139,0.104,12.279,0.209,18.418,0.313c6.137,0.104,13.737-0.787,19.412,2c10.147,4.984,9.961,18.9,9.297,28.432
	c-0.562,8.076-0.322,21.335-9.319,24.952c-4.212,1.694-8.992,1.493-13.443,1.503c-6.605,0.015-13.21-0.046-19.815-0.068
	c-26.42-0.091-52.84-0.182-79.26-0.272c-11.558-0.04-27.3,1.925-35.24-8.541c-8.336-10.986-5.733-26.54-4.059-39.17
	c0.214-1.618-0.376-3.121-1.372-4.36c-1.491-1.854-3.917-3.1-6.111-3.124c-4.482-0.046-6.955,3.493-7.483,7.484
	c-1.943,14.663-3.219,29.966,4.086,43.464C610.81,841.264,622.118,846.845,634.908,848.263z"/>
<path style="fill:#321C27;" d="M773.784,913.039c-6.813-3.268-14.343-3.393-21.75-3.529c-7.432-0.136-14.864-0.278-22.296-0.428
	c-15.124-0.304-30.248-0.618-45.374-0.836c-20.305-0.292-46.216-4.523-63.059,9.867c-17.817,15.223-18.44,44.176-18.52,65.553
	c-0.019,5.118,4.195,7.492,8.156,7.172c3.495-0.281,6.794-2.652,6.811-7.172c0.062-16.361-0.428-39.216,11.391-52.338
	c9.592-10.65,26.394-8.414,39.482-8.301c26.51,0.23,53.013,0.894,79.518,1.379c6.057,0.11,13.482-0.776,19.078,1.998
	c5.074,2.516,7.261,7.58,8.665,12.721c-0.248-0.764,0.281,1.948,0.33,2.844c0.125,2.271,0.183,4.546,0.24,6.82
	c0.76,29.761,0.43,59.586,0.055,89.351c-0.126,10.035,0.755,21.424-2.366,31.104c-4.205,13.039-20.728,9.857-31.537,9.813
	c-15.274-0.062-30.548-0.139-45.822-0.203c-16.924-0.07-33.921,0.365-50.836-0.137c-8.078-0.239-16.541-2.651-21.658-9.338
	c-7.065-9.231-5.848-21.758-5.896-32.681c-0.036-8.194-0.089-16.389-0.151-24.583c-0.036-4.712-3.641-7.107-7.303-7.209
	c-3.82-0.107-7.701,2.283-7.664,7.209c0.062,8.194,0.114,16.389,0.151,24.583c0.053,12.068-0.315,24.175,5.066,35.326
	c11.209,23.227,36.654,21.649,58.57,21.698c17.338,0.038,34.676,0.119,52.015,0.198c8.256,0.037,16.512,0.075,24.768,0.108
	c7.636,0.031,15.461,0.495,23.017-0.878c20.787-3.779,24.018-24.571,24.409-42.318c0.717-32.533,0.849-65.146,0.244-97.681
	C791.23,937.701,789.898,920.771,773.784,913.039z"/>
<path style="fill:#321C27;" d="M992.493,913.039c-6.813-3.268-14.342-3.393-21.75-3.529c-7.432-0.136-14.864-0.278-22.295-0.428
	c-15.125-0.304-30.248-0.618-45.374-0.836c-20.305-0.292-46.216-4.523-63.059,9.867c-17.816,15.223-18.44,44.176-18.52,65.553
	c-0.015,4.095,2.686,6.433,5.793,7.048c4.203,0.832,9.153-1.503,9.174-7.048c0.062-16.361-0.429-39.216,11.39-52.338
	c9.592-10.65,26.395-8.414,39.482-8.301c26.51,0.23,53.013,0.894,79.519,1.379c6.057,0.11,13.482-0.776,19.077,1.998
	c5.075,2.516,7.261,7.582,8.666,12.724c-0.249-0.773,0.28,1.944,0.33,2.841c0.125,2.271,0.182,4.546,0.241,6.82
	c0.759,29.761,0.43,59.586,0.055,89.351c-0.126,10.035,0.755,21.424-2.367,31.104c-4.205,13.039-20.727,9.857-31.536,9.813
	c-15.274-0.062-30.548-0.139-45.822-0.203c-16.924-0.07-33.921,0.365-50.837-0.137c-8.078-0.239-16.541-2.651-21.659-9.338
	c-7.064-9.231-5.848-21.758-5.896-32.681c-0.036-8.194-0.089-16.389-0.151-24.583c-0.044-5.742-5.377-8.038-9.666-6.933
	c-2.902,0.748-5.331,3.039-5.301,6.933c0.062,8.194,0.114,16.389,0.151,24.583c0.053,12.068-0.315,24.175,5.066,35.326
	c11.209,23.227,36.655,21.649,58.57,21.698c17.338,0.038,34.676,0.119,52.014,0.198c8.256,0.037,16.512,0.075,24.768,0.108
	c7.636,0.031,15.461,0.495,23.017-0.878c20.787-3.779,24.018-24.571,24.409-42.318c0.717-32.533,0.849-65.146,0.244-97.681
	C1009.94,937.701,1008.608,920.771,992.493,913.039z"/>
<path style="fill:#321C27;" d="M1207.15,913.039c-6.813-3.268-14.342-3.393-21.75-3.529c-7.432-0.136-14.864-0.278-22.296-0.428
	c-15.125-0.304-30.249-0.618-45.375-0.836c-20.305-0.292-46.216-4.523-63.059,9.867c-17.816,15.223-18.439,44.176-18.52,65.553
	c-0.018,4.828,3.733,7.237,7.484,7.227c3.733-0.01,7.465-2.416,7.484-7.227c0.061-16.361-0.429-39.216,11.39-52.338
	c9.592-10.65,26.395-8.414,39.482-8.301c26.509,0.23,53.013,0.894,79.519,1.379c6.057,0.11,13.482-0.776,19.077,1.998
	c5.075,2.516,7.261,7.582,8.666,12.724c-0.25-0.773,0.28,1.944,0.329,2.841c0.125,2.271,0.183,4.546,0.24,6.82
	c0.76,29.761,0.43,59.586,0.055,89.351c-0.126,10.035,0.755,21.424-2.366,31.104c-4.205,13.039-20.728,9.857-31.537,9.813
	c-15.274-0.062-30.548-0.139-45.822-0.203c-16.925-0.07-33.921,0.365-50.837-0.137c-8.078-0.239-16.541-2.651-21.658-9.338
	c-7.064-9.231-5.848-21.758-5.896-32.681c-0.036-8.194-0.089-16.389-0.151-24.583c-0.038-5.002-4.094-7.387-7.975-7.193
	c-3.588,0.179-7.027,2.558-6.992,7.193c0.062,8.194,0.115,16.389,0.151,24.583c0.053,12.068-0.315,24.175,5.066,35.326
	c11.209,23.227,36.654,21.649,58.57,21.698c17.338,0.038,34.676,0.119,52.014,0.198c8.256,0.037,16.513,0.075,24.769,0.108
	c7.636,0.031,15.461,0.495,23.017-0.878c20.787-3.779,24.018-24.571,24.409-42.318c0.717-32.533,0.849-65.146,0.244-97.681
	C1224.597,937.701,1223.265,920.771,1207.15,913.039z"/>
<path style="fill:#321C27;" d="M1443.594,953.152c-0.287-15.451-1.618-32.382-17.733-40.113c-6.813-3.268-14.343-3.393-21.75-3.529
	c-7.432-0.136-14.864-0.278-22.296-0.428c-15.124-0.304-30.249-0.618-45.374-0.836c-20.305-0.292-46.216-4.523-63.059,9.867
	c-17.817,15.223-18.439,44.176-18.52,65.553c-0.012,3.111,1.55,5.203,3.659,6.305c4.423,2.312,11.283,0.225,11.308-6.305
	c0.062-16.361-0.429-39.216,11.39-52.338c9.592-10.65,26.395-8.414,39.482-8.301c26.51,0.23,53.013,0.894,79.519,1.379
	c6.057,0.11,13.482-0.776,19.077,1.998c5.075,2.516,7.261,7.58,8.666,12.721c-0.249-0.764,0.281,1.948,0.33,2.844
	c0.125,2.271,0.182,4.546,0.24,6.82c0.76,29.761,0.43,59.586,0.055,89.351c-0.127,10.035,0.755,21.424-2.366,31.104
	c-4.205,13.039-20.728,9.857-31.537,9.813c-15.274-0.062-30.548-0.139-45.822-0.203c-16.925-0.07-33.921,0.365-50.837-0.137
	c-8.078-0.239-16.541-2.651-21.658-9.338c-7.064-9.231-5.849-21.758-5.897-32.681c-0.036-8.194-0.089-16.389-0.151-24.583
	c-0.051-6.756-7.424-8.762-11.8-6.035c-1.86,1.159-3.189,3.157-3.167,6.035c0.062,8.194,0.114,16.389,0.151,24.583
	c0.053,12.068-0.315,24.175,5.066,35.326c11.209,23.227,36.654,21.649,58.57,21.698c17.338,0.038,34.676,0.119,52.014,0.198
	c8.256,0.037,16.512,0.075,24.769,0.108c7.636,0.031,15.461,0.495,23.017-0.878c20.787-3.779,24.017-24.571,24.409-42.318
	C1444.067,1018.3,1444.198,985.687,1443.594,953.152z"/>
<path style="fill:#321C27;" d="M773.784,1138.432c-6.813-3.268-14.343-3.393-21.75-3.529c-7.432-0.136-14.864-0.278-22.296-0.427
	c-15.124-0.304-30.248-0.618-45.374-0.836c-20.305-0.292-46.216-4.523-63.059,9.867c-17.817,15.223-18.44,44.176-18.52,65.554
	c-0.019,5.117,4.195,7.491,8.156,7.172c3.495-0.282,6.794-2.653,6.811-7.172c0.062-16.363-0.428-39.217,11.391-52.339
	c9.592-10.649,26.394-8.414,39.482-8.301c26.51,0.231,53.013,0.895,79.518,1.38c6.057,0.111,13.482-0.775,19.078,1.998
	c5.075,2.516,7.261,7.581,8.665,12.723c-0.249-0.767,0.281,1.945,0.33,2.842c0.125,2.271,0.183,4.547,0.24,6.82
	c0.76,29.762,0.43,59.585,0.055,89.35c-0.126,10.036,0.755,21.424-2.366,31.104c-4.205,13.04-20.728,9.857-31.537,9.813
	c-15.274-0.061-30.548-0.139-45.822-0.203c-16.924-0.07-33.921,0.365-50.836-0.137c-8.078-0.24-16.541-2.651-21.658-9.339
	c-7.065-9.231-5.848-21.758-5.896-32.681c-0.036-8.195-0.089-16.389-0.151-24.583c-0.036-4.712-3.641-7.107-7.303-7.21
	c-3.82-0.106-7.701,2.283-7.664,7.21c0.062,8.194,0.114,16.388,0.151,24.583c0.053,12.068-0.315,24.176,5.066,35.327
	c11.209,23.226,36.654,21.649,58.57,21.697c17.338,0.038,34.676,0.119,52.015,0.198c8.256,0.037,16.512,0.075,24.768,0.108
	c7.636,0.03,15.461,0.495,23.017-0.878c20.787-3.778,24.018-24.57,24.409-42.318c0.717-32.532,0.849-65.146,0.244-97.68
	C791.23,1163.095,789.898,1146.163,773.784,1138.432z"/>
<path style="fill:#321C27;" d="M992.493,1138.432c-6.813-3.268-14.342-3.393-21.75-3.529c-7.432-0.136-14.864-0.278-22.295-0.427
	c-15.125-0.304-30.248-0.618-45.374-0.836c-20.305-0.292-46.216-4.523-63.059,9.867c-17.816,15.223-18.44,44.176-18.52,65.554
	c-0.015,4.094,2.686,6.433,5.793,7.048c4.203,0.831,9.153-1.503,9.174-7.048c0.062-16.363-0.429-39.217,11.39-52.339
	c9.592-10.649,26.395-8.414,39.482-8.301c26.51,0.231,53.013,0.895,79.519,1.38c6.057,0.111,13.482-0.775,19.077,1.998
	c5.076,2.516,7.262,7.583,8.667,12.726c-0.251-0.776,0.28,1.941,0.329,2.839c0.125,2.271,0.182,4.547,0.241,6.82
	c0.759,29.762,0.43,59.585,0.055,89.35c-0.126,10.036,0.755,21.424-2.367,31.104c-4.205,13.04-20.727,9.857-31.536,9.813
	c-15.274-0.061-30.548-0.139-45.822-0.203c-16.924-0.07-33.921,0.365-50.837-0.137c-8.078-0.24-16.541-2.651-21.659-9.339
	c-7.064-9.231-5.848-21.758-5.896-32.681c-0.036-8.195-0.089-16.389-0.151-24.583c-0.044-5.742-5.377-8.039-9.666-6.934
	c-2.902,0.749-5.331,3.04-5.301,6.934c0.062,8.194,0.114,16.388,0.151,24.583c0.053,12.068-0.315,24.176,5.066,35.327
	c11.209,23.226,36.655,21.649,58.57,21.697c17.338,0.038,34.676,0.119,52.014,0.198c8.256,0.037,16.512,0.075,24.768,0.108
	c7.636,0.03,15.461,0.495,23.017-0.878c20.787-3.778,24.018-24.57,24.409-42.318c0.717-32.532,0.849-65.146,0.244-97.68
	C1009.94,1163.095,1008.608,1146.163,992.493,1138.432z"/>
<path style="fill:#321C27;" d="M1207.15,1138.432c-6.813-3.268-14.342-3.393-21.75-3.529c-7.432-0.136-14.864-0.278-22.296-0.427
	c-15.125-0.304-30.249-0.618-45.375-0.836c-20.305-0.292-46.216-4.523-63.059,9.867c-17.816,15.223-18.439,44.176-18.52,65.554
	c-0.018,4.827,3.733,7.237,7.484,7.226c3.733-0.01,7.465-2.415,7.484-7.226c0.061-16.363-0.429-39.217,11.39-52.339
	c9.592-10.649,26.395-8.414,39.482-8.301c26.509,0.231,53.013,0.895,79.519,1.38c6.057,0.111,13.482-0.775,19.077,1.998
	c5.076,2.516,7.261,7.583,8.666,12.726c-0.25-0.776,0.28,1.941,0.329,2.839c0.125,2.271,0.183,4.547,0.24,6.82
	c0.76,29.762,0.43,59.585,0.055,89.35c-0.126,10.036,0.755,21.424-2.366,31.104c-4.205,13.04-20.728,9.857-31.537,9.813
	c-15.274-0.061-30.548-0.139-45.822-0.203c-16.925-0.07-33.921,0.365-50.837-0.137c-8.078-0.24-16.541-2.651-21.658-9.339
	c-7.064-9.231-5.848-21.758-5.896-32.681c-0.036-8.195-0.089-16.389-0.151-24.583c-0.038-5.002-4.094-7.387-7.975-7.194
	c-3.588,0.179-7.027,2.558-6.992,7.194c0.062,8.194,0.115,16.388,0.151,24.583c0.053,12.068-0.315,24.176,5.066,35.327
	c11.209,23.226,36.654,21.649,58.57,21.697c17.338,0.038,34.676,0.119,52.014,0.198c8.256,0.037,16.513,0.075,24.769,0.108
	c7.636,0.03,15.461,0.495,23.017-0.878c20.787-3.778,24.018-24.57,24.409-42.318c0.717-32.532,0.849-65.146,0.244-97.68
	C1224.597,1163.095,1223.265,1146.163,1207.15,1138.432z"/>
<path style="fill:#321C27;" d="M1269.829,1209.061c0.062-16.363-0.429-39.217,11.39-52.339c9.592-10.649,26.395-8.414,39.482-8.301
	c26.51,0.231,53.013,0.895,79.519,1.38c6.057,0.111,13.482-0.775,19.077,1.998c5.075,2.516,7.261,7.581,8.666,12.723
	c-0.249-0.767,0.281,1.945,0.33,2.842c0.125,2.271,0.182,4.547,0.24,6.82c0.76,29.762,0.43,59.585,0.055,89.35
	c-0.127,10.036,0.755,21.424-2.366,31.104c-4.205,13.04-20.728,9.857-31.537,9.813c-15.274-0.061-30.548-0.139-45.822-0.203
	c-16.925-0.07-33.921,0.365-50.837-0.137c-8.078-0.24-16.541-2.651-21.658-9.339c-7.064-9.231-5.849-21.758-5.897-32.681
	c-0.036-8.195-0.089-16.389-0.151-24.583c-0.051-6.756-7.424-8.762-11.8-6.035c-1.86,1.159-3.189,3.157-3.167,6.035
	c0.062,8.194,0.114,16.388,0.151,24.583c0.053,12.068-0.315,24.176,5.066,35.327c11.209,23.226,36.654,21.649,58.57,21.697
	c17.338,0.038,34.676,0.119,52.014,0.198c8.256,0.037,16.512,0.075,24.769,0.108c7.636,0.03,15.461,0.495,23.017-0.878
	c20.787-3.778,24.017-24.57,24.409-42.318c0.717-32.532,0.849-65.146,0.244-97.68c-0.287-15.451-1.618-32.382-17.733-40.113
	c-6.813-3.268-14.343-3.393-21.75-3.529c-7.432-0.136-14.864-0.278-22.296-0.427c-15.124-0.304-30.249-0.618-45.374-0.836
	c-20.305-0.292-46.216-4.523-63.059,9.867c-17.817,15.223-18.439,44.176-18.52,65.554c-0.012,3.11,1.55,5.203,3.659,6.305
	C1262.944,1217.677,1269.804,1215.59,1269.829,1209.061z"/>
<path style="fill:#321C27;" d="M773.784,1360.885c-6.813-3.269-14.343-3.393-21.75-3.529c-7.432-0.136-14.864-0.278-22.296-0.427
	c-15.124-0.304-30.248-0.618-45.374-0.836c-20.305-0.292-46.216-4.523-63.059,9.867c-17.817,15.223-18.44,44.176-18.52,65.553
	c-0.019,5.118,4.195,7.492,8.156,7.173c3.495-0.282,6.794-2.653,6.811-7.173c0.062-16.362-0.428-39.216,11.391-52.338
	c9.592-10.649,26.394-8.414,39.482-8.301c26.51,0.23,53.013,0.895,79.518,1.38c6.057,0.11,13.482-0.776,19.078,1.998
	c5.075,2.516,7.261,7.581,8.666,12.723c-0.249-0.77,0.28,1.945,0.33,2.841c0.125,2.271,0.183,4.547,0.24,6.82
	c0.76,29.762,0.43,59.585,0.055,89.351c-0.126,10.035,0.755,21.424-2.366,31.104c-4.205,13.039-20.728,9.857-31.537,9.813
	c-15.274-0.061-30.548-0.139-45.822-0.203c-16.924-0.07-33.921,0.365-50.836-0.137c-8.078-0.24-16.541-2.651-21.658-9.338
	c-7.065-9.232-5.848-21.758-5.896-32.681c-0.036-8.195-0.089-16.39-0.151-24.583c-0.036-4.712-3.641-7.107-7.303-7.21
	c-3.82-0.106-7.701,2.283-7.664,7.21c0.062,8.194,0.114,16.389,0.151,24.583c0.053,12.068-0.315,24.175,5.066,35.326
	c11.209,23.227,36.654,21.649,58.57,21.698c17.338,0.038,34.676,0.119,52.015,0.198c8.256,0.037,16.512,0.075,24.768,0.108
	c7.636,0.03,15.461,0.495,23.017-0.878c20.787-3.779,24.018-24.571,24.409-42.318c0.717-32.533,0.849-65.146,0.244-97.681
	C791.23,1385.548,789.898,1368.616,773.784,1360.885z"/>
<path style="fill:#321C27;" d="M992.493,1360.885c-6.813-3.269-14.342-3.393-21.75-3.529c-7.432-0.136-14.864-0.278-22.295-0.427
	c-15.125-0.304-30.248-0.618-45.374-0.836c-20.305-0.292-46.216-4.523-63.059,9.867c-17.816,15.223-18.44,44.176-18.52,65.553
	c-0.015,4.095,2.686,6.433,5.793,7.048c4.203,0.832,9.153-1.504,9.174-7.048c0.062-16.362-0.429-39.216,11.39-52.338
	c9.592-10.649,26.395-8.414,39.482-8.301c26.51,0.23,53.013,0.895,79.519,1.38c6.057,0.11,13.482-0.776,19.077,1.998
	c5.076,2.517,7.262,7.583,8.667,12.726c-0.251-0.779,0.28,1.941,0.329,2.839c0.125,2.271,0.182,4.547,0.241,6.82
	c0.759,29.762,0.43,59.585,0.055,89.351c-0.126,10.035,0.755,21.424-2.367,31.104c-4.205,13.039-20.727,9.857-31.536,9.813
	c-15.274-0.061-30.548-0.139-45.822-0.203c-16.924-0.07-33.921,0.365-50.837-0.137c-8.078-0.24-16.541-2.651-21.659-9.338
	c-7.064-9.232-5.848-21.758-5.896-32.681c-0.036-8.195-0.089-16.39-0.151-24.583c-0.044-5.742-5.377-8.039-9.666-6.933
	c-2.902,0.748-5.331,3.039-5.301,6.933c0.062,8.194,0.114,16.389,0.151,24.583c0.053,12.068-0.315,24.175,5.066,35.326
	c11.209,23.227,36.655,21.649,58.57,21.698c17.338,0.038,34.676,0.119,52.014,0.198c8.256,0.037,16.512,0.075,24.768,0.108
	c7.636,0.03,15.461,0.495,23.017-0.878c20.787-3.779,24.018-24.571,24.409-42.318c0.717-32.533,0.849-65.146,0.244-97.681
	C1009.94,1385.548,1008.608,1368.616,992.493,1360.885z"/>
<path style="fill:#321C27;" d="M1207.15,1360.885c-6.813-3.269-14.342-3.393-21.75-3.529c-7.432-0.136-14.864-0.278-22.296-0.427
	c-15.125-0.304-30.249-0.618-45.375-0.836c-20.305-0.292-46.216-4.523-63.059,9.867c-17.816,15.223-18.439,44.176-18.52,65.553
	c-0.018,4.828,3.733,7.238,7.484,7.227c3.733-0.01,7.465-2.416,7.484-7.227c0.061-16.362-0.429-39.216,11.39-52.338
	c9.592-10.649,26.395-8.414,39.482-8.301c26.509,0.23,53.013,0.895,79.519,1.38c6.057,0.11,13.482-0.776,19.077,1.998
	c5.076,2.517,7.261,7.583,8.666,12.726c-0.251-0.779,0.28,1.941,0.329,2.839c0.125,2.271,0.183,4.547,0.24,6.82
	c0.76,29.762,0.43,59.585,0.055,89.351c-0.126,10.035,0.755,21.424-2.366,31.104c-4.205,13.039-20.728,9.857-31.537,9.813
	c-15.274-0.061-30.548-0.139-45.822-0.203c-16.925-0.07-33.921,0.365-50.837-0.137c-8.078-0.24-16.541-2.651-21.658-9.338
	c-7.064-9.232-5.848-21.758-5.896-32.681c-0.036-8.195-0.089-16.39-0.151-24.583c-0.038-5.002-4.094-7.386-7.975-7.194
	c-3.588,0.179-7.027,2.558-6.992,7.194c0.062,8.194,0.115,16.389,0.151,24.583c0.053,12.068-0.315,24.175,5.066,35.326
	c11.209,23.227,36.654,21.649,58.57,21.698c17.338,0.038,34.676,0.119,52.014,0.198c8.256,0.037,16.513,0.075,24.769,0.108
	c7.636,0.03,15.461,0.495,23.017-0.878c20.787-3.779,24.018-24.571,24.409-42.318c0.717-32.533,0.849-65.146,0.244-97.681
	C1224.597,1385.548,1223.265,1368.616,1207.15,1360.885z"/>
<path style="fill:#321C27;" d="M1420.734,1763.089c26.728-6.44,22.555-41.476,22.691-62.845c0.199-31.551,0.278-63.102,0.341-94.654
	c0.133-67.212,0.472-134.447-0.36-201.656c-0.072-5.821,0.106-11.755-0.429-17.559c-1-10.834-8.11-21.545-18.106-25.934
	c-7.135-3.133-15.05-2.984-22.696-3.12c-8.2-0.147-16.401-0.314-24.602-0.48c-16.187-0.326-32.374-0.653-48.563-0.848
	c-12.038-0.146-24.521-1.141-36.444,1.015c-17.956,3.248-28.894,17.017-33.489,34c-3.544,13.098-4.164,27.01-4.215,40.504
	c-0.012,3.174,1.617,5.281,3.792,6.365c4.426,2.204,11.15,0.102,11.175-6.365c0.063-16.813-0.643-44.302,14.843-55.491
	c5.43-3.923,12.242-4.982,18.901-5.187c14.518-0.446,29.138,0.148,43.658,0.396c14.99,0.256,29.979,0.58,44.969,0.871
	c7.345,0.143,15.52-0.608,22.75,0.837c8.208,1.641,10.618,7.434,13.129,14.515c0.011,0.928,0.079,1.861,0.109,2.789
	c0.103,3.209,0.149,6.421,0.196,9.631c0.913,61.506,0.539,123.048,0.451,184.559c-0.047,32.691-0.124,65.382-0.28,98.072
	c-0.073,15.278,0.507,30.761-0.428,46.021c-0.294,4.802-0.933,10.47-3.442,14.698c-3.725,6.279-11.453,6.15-17.931,6.174
	c-17.644,0.066-35.293-0.147-52.937-0.224c-18.159-0.079-36.335,0.125-54.491-0.143c-8.531-0.125-17.503-2.227-22.958-9.353
	c-7.051-9.213-5.865-21.724-5.873-32.714c-0.008-12.23-0.017-24.46-0.027-36.689c-0.046-61.21-0.095-122.419-0.145-183.629
	c-0.001-1.293-0.002-2.585-0.003-3.877c-0.005-6.638-7.118-8.705-11.535-6.191c-1.991,1.133-3.435,3.194-3.432,6.191
	c0.047,58.11,0.093,116.22,0.138,174.33c0.011,14.556,0.022,29.112,0.032,43.667c0.007,10.106-0.672,20.667,1.334,30.609
	c2.259,11.201,8.778,21.491,18.927,27.068c11.168,6.137,23.588,5.546,35.924,5.564c18.99,0.027,37.979,0.113,56.968,0.2
	c9.082,0.041,18.164,0.083,27.246,0.12C1404.087,1764.36,1412.711,1765.022,1420.734,1763.089z M1428.074,1387.354
	C1427.556,1385.676,1428.061,1386.034,1428.074,1387.354L1428.074,1387.354z"/>
<path style="fill:#321C27;" d="M773.784,1583.338c-6.813-3.269-14.343-3.394-21.75-3.529c-7.432-0.137-14.864-0.278-22.296-0.428
	c-15.124-0.303-30.248-0.618-45.374-0.835c-20.305-0.292-46.216-4.523-63.059,9.867c-17.817,15.222-18.44,44.176-18.52,65.553
	c-0.021,5.602,5.026,7.926,9.266,7.014c3.05-0.656,5.686-2.977,5.701-7.014c0.062-16.362-0.428-39.216,11.391-52.338
	c9.592-10.65,26.394-8.415,39.482-8.301c26.51,0.23,53.013,0.895,79.518,1.379c6.057,0.111,13.482-0.775,19.078,1.999
	c5.075,2.515,7.261,7.58,8.665,12.721c-0.249-0.767,0.281,1.946,0.33,2.843c0.125,2.271,0.183,4.547,0.24,6.82
	c0.76,29.761,0.43,59.585,0.055,89.351c-0.126,10.035,0.755,21.424-2.366,31.103c-4.205,13.04-20.728,9.857-31.537,9.814
	c-15.274-0.062-30.548-0.14-45.822-0.203c-16.924-0.07-33.921,0.365-50.836-0.137c-8.078-0.24-16.541-2.651-21.658-9.338
	c-7.065-9.232-5.848-21.758-5.896-32.681c-0.036-8.195-0.089-16.389-0.151-24.583c-0.032-4.234-2.946-6.607-6.194-7.118
	c-4.136-0.653-8.814,1.714-8.773,7.118c0.062,8.194,0.114,16.389,0.151,24.583c0.053,12.069-0.315,24.175,5.066,35.326
	c11.209,23.227,36.654,21.65,58.57,21.698c17.338,0.037,34.676,0.118,52.015,0.198c8.256,0.038,16.512,0.076,24.768,0.109
	c7.636,0.03,15.461,0.495,23.017-0.879c20.787-3.779,24.018-24.57,24.409-42.318c0.717-32.533,0.849-65.145,0.244-97.681
	C791.23,1608,789.898,1591.068,773.784,1583.338z"/>
<path style="fill:#321C27;" d="M992.493,1583.338c-6.813-3.269-14.342-3.394-21.75-3.529c-7.432-0.137-14.864-0.278-22.295-0.428
	c-15.125-0.303-30.248-0.618-45.374-0.835c-20.305-0.292-46.216-4.523-63.059,9.867c-17.816,15.222-18.44,44.176-18.52,65.553
	c-0.017,4.578,3.356,6.955,6.902,7.184c3.917,0.253,8.046-2.122,8.065-7.184c0.062-16.362-0.429-39.216,11.39-52.338
	c9.592-10.65,26.395-8.415,39.482-8.301c26.51,0.23,53.013,0.895,79.519,1.379c6.057,0.111,13.482-0.775,19.077,1.999
	c5.076,2.516,7.262,7.581,8.667,12.724c-0.251-0.775,0.28,1.943,0.329,2.84c0.125,2.271,0.182,4.547,0.241,6.82
	c0.759,29.761,0.43,59.585,0.055,89.351c-0.126,10.035,0.755,21.424-2.367,31.103c-4.205,13.04-20.727,9.857-31.536,9.814
	c-15.274-0.062-30.548-0.14-45.822-0.203c-16.924-0.07-33.921,0.365-50.837-0.137c-8.078-0.24-16.541-2.651-21.659-9.338
	c-7.064-9.232-5.848-21.758-5.896-32.681c-0.036-8.195-0.089-16.389-0.151-24.583c-0.04-5.252-4.512-7.623-8.557-7.147
	c-3.369,0.397-6.443,2.763-6.41,7.147c0.062,8.194,0.114,16.389,0.151,24.583c0.053,12.069-0.315,24.175,5.066,35.326
	c11.209,23.227,36.655,21.65,58.57,21.698c17.338,0.037,34.676,0.118,52.014,0.198c8.256,0.038,16.512,0.076,24.768,0.109
	c7.636,0.03,15.461,0.495,23.017-0.879c20.787-3.779,24.018-24.57,24.409-42.318c0.717-32.533,0.849-65.145,0.244-97.681
	C1009.94,1608,1008.608,1591.068,992.493,1583.338z"/>
<path style="fill:#321C27;" d="M1207.15,1583.338c-6.813-3.269-14.342-3.394-21.75-3.529c-7.432-0.137-14.864-0.278-22.296-0.428
	c-15.125-0.303-30.249-0.618-45.375-0.835c-20.305-0.292-46.216-4.523-63.059,9.867c-17.816,15.222-18.439,44.176-18.52,65.553
	c-0.02,5.306,4.511,7.676,8.592,7.138c3.328-0.439,6.359-2.806,6.375-7.138c0.061-16.362-0.429-39.216,11.39-52.338
	c9.592-10.65,26.395-8.415,39.482-8.301c26.509,0.23,53.013,0.895,79.519,1.379c6.057,0.111,13.482-0.775,19.077,1.999
	c5.076,2.516,7.261,7.581,8.666,12.724c-0.25-0.775,0.28,1.943,0.329,2.84c0.125,2.271,0.183,4.547,0.24,6.82
	c0.76,29.761,0.43,59.585,0.055,89.351c-0.126,10.035,0.755,21.424-2.366,31.103c-4.205,13.04-20.728,9.857-31.537,9.814
	c-15.274-0.062-30.548-0.14-45.822-0.203c-16.925-0.07-33.921,0.365-50.837-0.137c-8.078-0.24-16.541-2.651-21.658-9.338
	c-7.064-9.232-5.848-21.758-5.896-32.681c-0.036-8.195-0.089-16.389-0.151-24.583c-0.034-4.524-3.361-6.899-6.867-7.173
	c-3.954-0.31-8.139,2.059-8.1,7.173c0.062,8.194,0.115,16.389,0.151,24.583c0.053,12.069-0.315,24.175,5.066,35.326
	c11.209,23.227,36.654,21.65,58.57,21.698c17.338,0.037,34.676,0.118,52.014,0.198c8.256,0.038,16.513,0.076,24.769,0.109
	c7.636,0.03,15.461,0.495,23.017-0.879c20.787-3.779,24.018-24.57,24.409-42.318c0.717-32.533,0.849-65.145,0.244-97.681
	C1224.597,1608,1223.265,1591.068,1207.15,1583.338z"/>
<path style="fill:#321C27;" d="M1260.756,1448.018c-0.755,0-1.43,0.119-2.067,0.288c-6.866,1.829-6.861,12.625,0.049,14.406
	c0.623,0.16,1.283,0.272,2.018,0.272C1270.387,1462.985,1270.403,1448.018,1260.756,1448.018z"/>
<path style="fill:#321C27;" d="M1321.228,1232.221c16.615,0,33.23,0,49.845,0c2.35,0,4.7,0,7.05,0c9.63,0,9.646-14.967,0-14.967
	c-16.615,0-33.23,0-49.845,0c-2.35,0-4.7,0-7.049,0C1311.597,1217.254,1311.581,1232.221,1321.228,1232.221z"/>
<path style="fill:#321C27;" d="M1320.904,1005.229c16.615,0,33.23,0,49.845,0c2.35,0,4.7,0,7.05,0c9.631,0,9.647-14.967,0-14.967
	c-16.615,0-33.23,0-49.845,0c-2.35,0-4.7,0-7.05,0C1311.273,990.262,1311.258,1005.229,1320.904,1005.229z"/>
<path style="fill:#321C27;" d="M1321.228,1575.609c6.988,0,13.976,0,20.963,0c0,4.638,0,9.276,0,13.914c0,2.35,0,4.7,0,7.05
	c0,9.631,14.967,9.647,14.967,0c0-6.988,0-13.976,0-20.964c4.638,0,9.276,0,13.914,0c2.35,0,4.7,0,7.05,0
	c9.63,0,9.646-14.967,0-14.967c-6.988,0-13.976,0-20.964,0c0-4.638,0-9.276,0-13.914c0-2.35,0-4.7,0-7.049
	c0-9.63-14.967-9.646-14.967,0c0,6.988,0,13.976,0,20.964c-4.638,0-9.276,0-13.914,0c-2.35,0-4.7,0-7.049,0
	C1311.597,1560.642,1311.581,1575.609,1321.228,1575.609z"/>
<path style="fill:#321C27;" d="M1350.263,978.555c9.631,0,9.646-14.967,0-14.967
	C1340.632,963.588,1340.616,978.555,1350.263,978.555z"/>
<path style="fill:#321C27;" d="M1350.707,1015.157c-9.63,0-9.647,14.967,0,14.967
	C1360.338,1030.125,1360.354,1015.157,1350.707,1015.157z"/>
<path style="fill:#321C27;" d="M1537.926,1184.928c-0.312-0.035-0.609-0.094-0.945-0.094c-9.63,0-9.646,14.967,0,14.967
	c0.336,0,0.633-0.058,0.945-0.094C1546.261,1198.769,1546.273,1185.864,1537.926,1184.928z"/>
<path style="fill:#321C27;" d="M1619.86,654.794c0.431-64.882,0.941-129.763,1.67-194.642c0.271-24.121,0.573-48.241,0.952-72.36
	c0.356-22.65,1.016-44.887-3.449-67.26c-5.784-28.977-18.291-56.694-37.411-79.321c-23.503-27.814-56.747-45.383-92.158-52.671
	c-22.999-4.733-46.556-5.579-69.939-4.079c-0.744,0.047-1.409,0.208-2.038,0.415c-5.12-0.885-10.28-1.581-15.489-1.918
	c-41.202-2.665-82.821-2.406-124.096-2.8c-84.262-0.805-168.526,0.209-252.784,1.092c-84.865,0.889-169.743,1.64-254.608,0.345
	c-37.241-0.568-75.026-3.783-112.207-0.697c-29.378,2.438-58.759,9.45-83.914,25.36c-24.78,15.673-45.576,38.887-55.937,66.467
	c-9.283,24.709-12.93,51.589-15.238,77.758c-0.63,7.146-1.052,14.303-1.497,21.462c-0.303,4.883,3.406,7.267,7.21,7.187
	c3.688-0.078,7.464-2.47,7.757-7.187c1.207-19.429,2.789-38.792,6.326-57.961c2.423-13.137,5.572-26.253,10.425-38.722
	c4.983-12.802,12.883-23.917,22.173-33.969c20.006-21.647,45.985-35.06,74.609-41.312c31.854-6.957,64.462-5.05,96.795-4.271
	c82.929,1.998,165.891,1.743,248.834,0.994c82.316-0.742,164.63-1.968,246.951-1.866c41.206,0.05,82.415,0.435,123.612,1.383
	c31.96,0.736,65.91-1.584,95.989,11.158c44.534,18.866,73.512,62.811,86.161,108.081c6.14,21.979,6.937,43.254,6.517,65.921
	c-0.6,32.477-1.146,64.954-1.634,97.433c-1.05,69.906-1.837,139.817-2.287,209.73c-0.463,71.889-0.574,143.782-0.147,215.671
	c0.406,68.147,1.274,136.295,3.042,204.421c0.395,15.22,0.84,30.438,1.337,45.655c0.079,2.414,1.084,4.221,2.537,5.426
	c4.333,3.589,12.666,1.8,12.43-5.426c-2.209-67.585-3.37-135.202-4.015-202.82c-0.7-73.298-0.768-146.602-0.45-219.903
	c0.315-72.489,1.018-144.974,2.012-217.456c0.465-33.904,0.994-67.806,1.585-101.707c0.459-26.37,2.597-53.06-1.682-79.215
	c-7.777-47.527-32.343-94.41-71.397-123.419c-5.102-3.79-10.465-7.155-16.008-10.158c28.405,2.299,56.208,9.664,80.481,25.421
	c25.826,16.766,44.984,42.32,55.679,71.051c16.107,43.269,10.917,89.962,10.347,135.187c-0.754,59.929-1.266,119.86-1.708,179.792
	c-0.558,75.697-0.973,151.395-1.294,227.093c-0.355,83.542-0.591,167.086-0.704,250.63c-0.112,82.469-0.106,164.938,0.08,247.407
	c0.163,72.495,0.453,144.99,1.045,217.481c0.446,54.571,0.989,109.147,2.207,163.707c0.708,31.704,0.186,62.593-8.555,93.445
	c-6.707,23.669-17.665,46.498-34.49,64.67c-0.571,0.617-1.202,1.151-1.784,1.752c16.65-35.45,21.159-75.758,24.922-114.947
	c0.92-9.583-14.053-9.519-14.967,0c-4.509,46.954-9.571,97.931-40.163,136.172c-0.574,0.717-0.953,1.468-1.24,2.226
	c-13.96,7.335-29.216,12.254-45.102,14.839c-5.772,0.94-11.591,1.536-17.429,1.905c1.215-0.693,2.45-1.331,3.644-2.083
	c30.027-18.895,50.614-50.269,62.991-82.943c5.479-14.463,9.331-29.636,10.666-45.069c1.67-19.306,0.724-39.097,0.861-58.465
	c0.326-46.042,0.41-92.086,0.375-138.128c-0.073-96.943-0.675-193.886-1.334-290.827c-0.153-22.436-0.309-44.871-0.463-67.307
	c-0.03-4.385-3.154-6.754-6.538-7.147c-4.046-0.47-8.465,1.893-8.429,7.147c0.64,93.381,1.316,186.76,1.63,280.143
	c0.159,47.084,0.229,94.17,0.126,141.255c-0.092,42.553,0.595,85.276-0.859,127.808c-1.056,30.91-14.495,62.487-32.272,87.372
	c-10.198,14.276-23.094,26.983-38.405,35.682c-11.186,6.356-23.221,9.635-35.587,11.408c-0.802-0.002-1.547,0.083-2.196,0.299
	c-9.613,1.235-19.402,1.642-29.161,1.786c-106.875,1.576-213.775,1.368-320.658,2.023c-107.285,0.657-214.457,2.997-321.7,5.797
	c-49.874,1.302-102.409,0.454-150.066-16.023c-20.889-7.223-41.084-18.769-54.456-36.789
	c-12.609-16.992-18.608-37.749-21.648-58.436c-3.202-21.792-3.107-43.976-3.413-65.948c-0.379-27.132-0.757-54.264-1.131-81.397
	c-0.748-54.266-1.479-108.533-2.164-162.8c-1.363-108.041-2.541-216.084-3.303-324.132c-0.76-108.041-1.104-216.084-0.795-324.127
	c0.308-108.038,1.267-216.075,3.111-324.098c0.455-26.636,0.965-53.272,1.529-79.906c0.119-5.607-4.894-7.927-9.152-7.008
	c-3.058,0.66-5.73,2.98-5.815,7.008c-2.337,110.482-3.707,220.982-4.332,331.486c-0.625,110.507-0.514,221.016,0.083,331.523
	c0.597,110.515,1.679,221.026,2.999,331.534c1.304,109.204,1.427,218.545,4.443,327.715c1.158,41.905,6.277,88.14,37.73,119.131
	c33.602,33.108,85.249,41.659,130.293,45.554c53.492,4.626,107.478,0.487,161.038-0.842c54.909-1.364,109.831-2.18,164.755-2.714
	c109.675-1.065,219.358-1,329.035-1.927c26.532-0.224,53.229,0.282,79.729-1.139c5.52-0.296,11.009-0.796,16.434-1.566
	c37.415,3.744,76.408,0.926,110.424-16.299c25.211-12.765,45.619-33.425,59.405-57.974c20.067-35.733,27.583-78.373,26.885-119.042
	c-0.746-43.455-1.76-86.9-2.232-130.362c-0.757-69.784-1.132-139.572-1.377-209.358c-0.289-82.561-0.365-165.123-0.317-247.684
	c0.049-85.521,0.237-171.044,0.545-256.565C1618.941,814.271,1619.33,734.532,1619.86,654.794z"/>
<path style="fill:#321C27;" d="M509.729,407.69l0.036,0.002c0.722,0.006,1.473-0.064,2.157-0.297
	c0.642-0.218,1.266-0.491,1.874-0.79l0.103-0.06c0.872-0.47,1.573-1.113,2.1-1.927c0.661-0.723,1.108-1.572,1.34-2.545
	c0.302-0.964,0.342-1.929,0.142-2.894c0.1-0.929,0.09-1.858-0.16-2.788c-0.251-0.595-0.503-1.191-0.754-1.787
	c-0.665-1.125-1.56-2.02-2.685-2.685l-0.093-0.052l-0.927-0.392l-0.937-0.395l-0.078-0.022c-0.678-0.142-1.369-0.231-2.059-0.277
	c-0.258-0.017-0.555,0.005-0.858,0.038c-1.096,0.123-2.381,0.536-3.168,1.047l-0.028,0.02l-1.522,1.176l-0.01,0.008l-0.054,0.053
	c-0.45,0.51-0.911,1.036-1.25,1.628c-0.346,0.606-0.576,1.277-0.82,1.928l-0.048,0.165l-0.017,0.085l-0.007,0.046l-0.268,1.996
	l-0.005,0.035l-0.012,0.186l0.006,0.188c0.062,0.725,0.156,1.45,0.292,2.166l0.044,0.177l0.027,0.077l0.006,0.015l0.759,1.798
	l0.02,0.043l0.079,0.132l1.176,1.522l0.012,0.015l0.024,0.029l0.052,0.049l0.014,0.012l1.525,1.177l0.033,0.022
	c0.574,0.34,1.22,0.564,1.846,0.783l0.075,0.021l0.004,0.001l1.004,0.135l0.212,0.028l0.787,0.106L509.729,407.69z"/>
<path style="fill:#321C27;" d="M1384.572,227.839c59.525,11.475,103.35,63.134,104.059,123.953c0.113,9.624,15.08,9.65,14.967,0
	c-0.782-67.042-49.05-125.663-115.048-138.386C1379.14,211.592,1375.109,226.015,1384.572,227.839z"/>
<path style="fill:#321C27;" d="M1492.746,379.508v0.734c0,9.63,14.967,9.647,14.967,0v-0.734
	C1507.714,369.877,1492.746,369.861,1492.746,379.508z"/>
<path style="fill:#321C27;" d="M717.79,1064.402c10.154,3.357,22.197,3.235,31.509-2.497c8.667-5.334,15.141-15.707,13.836-26.132
	c-0.484-3.87-3.095-7.68-7.483-7.484c-3.638,0.163-8.004,3.324-7.484,7.484c0.11,0.876,0.177,1.751,0.16,2.635l-0.065,1.009
	c0.061-0.315,0.138-0.499-0.007,0.113l-0.029,0.448c-0.02-0.09-0.013-0.219,0.001-0.347c-0.221,0.91-0.507,1.789-0.759,2.691
	c-0.001,0.005-0.001,0.004-0.003,0.009l-0.558,1.09c-0.418,0.759-0.905,1.454-1.377,2.176c-0.022,0.023-0.01,0.006-0.035,0.034
	l-0.902,0.991c-0.338,0.35-1.799,1.35-2.083,1.856c-0.407,0.263-0.806,0.531-1.225,0.777l-1.201,0.647
	c-0.087,0.044-0.234,0.126-0.382,0.21c-0.785,0.37-1.71,0.605-2.526,0.828c-0.797,0.218-1.955,0.658-2.804,0.612
	c-0.052,0.001-0.11-0.005-0.156,0c-0.493,0.044-0.988,0.078-1.484,0.098c-0.994,0.041-1.991,0.035-2.984-0.014
	c-0.599-0.03-1.194-0.087-1.792-0.137c-0.037-0.003-0.045-0.003-0.077-0.005c-0.008-0.001-0.007-0.002-0.015-0.004
	c-2.067-0.432-4.088-0.856-6.097-1.521c-3.719-1.23-8.34,1.423-9.206,5.227C711.624,1059.318,713.808,1063.085,717.79,1064.402z
	 M742.641,1048.398c-0.037,0.024-0.074,0.047-0.112,0.071C742.783,1048.191,743.433,1047.89,742.641,1048.398z"/>
<path style="fill:#321C27;" d="M953.726,1069.75c4.238-0.25,8.27-1.364,11.962-3.491c3.741-2.155,6.67-5.121,9.23-8.545
	c4.75-6.353,6.434-14.898,4.534-22.575c-0.94-3.802-5.43-6.449-9.206-5.227c-3.941,1.275-6.234,5.131-5.227,9.205
	c0.072,0.292,0.114,0.59,0.173,0.885c0.077,0.993,0.076,1.985,0,2.977c-0.208,1.076-0.497,2.129-0.864,3.161
	c-0.445,0.951-0.898,1.899-1.472,2.782c-0.254,0.391-0.939,1.203-1.004,1.289c-0.176,0.202-0.346,0.409-0.532,0.603
	c-0.464,0.48-0.95,0.941-1.456,1.379l-0.196,0.161l-0.133,0.095c-0.888,0.613-1.849,1.097-2.819,1.562
	c-0.937,0.327-1.893,0.584-2.872,0.761l-0.119,0.011c-3.901,0.23-7.672,3.277-7.484,7.483
	C946.416,1066.124,949.541,1069.997,953.726,1069.75z"/>
<path style="fill:#321C27;" d="M1184.194,1071.284c11.29-5.903,17.214-20.417,13.35-32.542c-1.186-3.724-5.253-6.506-9.205-5.226
	c-3.733,1.207-6.5,5.211-5.227,9.205c0.246,0.772,0.392,1.563,0.542,2.355c0.074,1.031,0.073,2.062-0.005,3.095
	c-0.218,1.177-0.531,2.329-0.932,3.456c-0.521,1.103-1.144,2.144-1.834,3.148c-0.743,0.874-1.542,1.692-2.418,2.433
	c-0.597,0.4-1.182,0.817-1.823,1.153c-3.475,1.817-4.803,6.952-2.685,10.239C1176.237,1072.137,1180.478,1073.227,1184.194,1071.284
	z"/>
<path style="fill:#321C27;" d="M1385.278,1067.096c0.586,1.812,1.708,3.558,3.439,4.473c1.865,0.985,3.692,1.14,5.766,0.755
	c6.919-1.284,12.605-5.761,16.708-11.285c3.699-4.979,5.752-11.873,4.983-18.061c-0.256-2.058-0.666-3.766-2.192-5.292
	c-1.298-1.298-3.427-2.275-5.291-2.192c-1.936,0.086-3.943,0.722-5.292,2.192c-1.246,1.357-2.43,3.372-2.192,5.292
	c0.157,1.26,0.144,2.516,0.048,3.774c-0.21,1.074-0.504,2.125-0.878,3.153c-0.488,1.01-1.052,1.976-1.683,2.902
	c-0.848,1.014-1.774,1.954-2.785,2.805c-0.745,0.507-1.52,0.962-2.324,1.366c-1.008,0.371-2.02,0.716-3.081,0.913
	c-1.754,0.325-3.601,1.95-4.472,3.439C1385.093,1062.934,1384.696,1065.298,1385.278,1067.096z"/>
<path style="fill:#321C27;" d="M1396.005,1298.146c1.721,0.909,3.86,1.402,5.766,0.754c5.711-1.94,10.336-5.612,13.671-10.624
	c2.906-4.367,4.523-10.056,4.088-15.302c-0.168-2.016-0.723-3.822-2.192-5.292c-1.298-1.299-3.427-2.276-5.292-2.192
	c-1.935,0.086-3.943,0.722-5.292,2.192c-1.279,1.393-2.354,3.333-2.192,5.292c0.081,0.981,0.014,1.957-0.067,2.933
	c-0.157,0.748-0.358,1.484-0.603,2.208c-0.49,1.044-1.088,2.027-1.748,2.972c-0.578,0.661-1.194,1.284-1.855,1.862
	c-0.938,0.649-1.888,1.279-2.937,1.743c-1.651,0.648-3.112,1.641-4.033,3.214c-0.938,1.604-1.336,3.968-0.754,5.766
	C1393.151,1295.484,1394.273,1297.231,1396.005,1298.146z"/>
<path style="fill:#321C27;" d="M1392.043,1738.954c2.386,1.106,4.244,1.644,6.881,1.845c1.798,0.137,3.728-0.151,5.454-0.612
	c3.424-0.914,6.723-2.878,9.203-5.403c2.705-2.754,4.449-6.107,5.767-9.695c1.194-3.25,1.645-6.677,2.099-10.091
	c0.234-1.755-1.005-4.105-2.192-5.292c-1.298-1.298-3.428-2.275-5.292-2.192c-1.936,0.086-3.943,0.722-5.292,2.192
	c-0.39,0.505-0.78,1.01-1.17,1.515c-0.399,0.688-0.644,1.416-0.809,2.168c-0.367,2.638-0.952,5.239-1.865,7.74
	c-0.421,0.881-0.91,1.722-1.456,2.53c-0.34,0.379-0.7,0.74-1.078,1.08c-0.427,0.279-0.869,0.532-1.323,0.764
	c-0.297,0.095-0.599,0.178-0.903,0.251c-0.262,0.011-0.527,0.012-0.789,0.003c-0.329-0.089-0.667-0.143-0.989-0.268
	c0.213,0.09,0.427,0.18,0.64,0.27c-0.002,0-0.004,0-0.006,0c-1.641-0.667-3.284-0.981-5.093-0.484
	c-1.736,0.478-3.616,1.82-4.472,3.439c-0.917,1.737-1.377,3.841-0.754,5.766C1389.171,1736.235,1390.303,1738.147,1392.043,1738.954
	z"/>
<path style="fill:#321C27;" d="M1179.227,1744.212c11.821-6.283,17.803-20.493,15.003-33.389c-0.832-3.83-5.506-6.424-9.205-5.227
	c-4.033,1.305-6.118,5.102-5.227,9.206c0.037,0.172,0.06,0.345,0.094,0.518c0.127,1.359,0.123,2.719,0.006,4.078
	c-0.26,1.404-0.643,2.775-1.139,4.113c-0.405,0.856-0.813,1.712-1.316,2.516c-0.256,0.41-0.535,0.802-0.811,1.197l-0.437,0.511
	c-0.724,0.809-1.522,1.524-2.339,2.232l-0.515,0.348c-0.541,0.35-1.099,0.67-1.668,0.972c-3.461,1.84-4.814,6.937-2.685,10.239
	C1171.257,1745.046,1175.524,1746.18,1179.227,1744.212z"/>
<path style="fill:#321C27;" d="M1166.57,1511.959c2.087,0.475,3.822,0.099,5.766-0.754c11.318-4.968,19.014-18.494,17.382-30.768
	c-0.274-2.067-0.654-3.753-2.192-5.292c-1.298-1.298-3.427-2.275-5.292-2.192c-1.935,0.087-3.942,0.723-5.291,2.192
	c-1.239,1.35-2.446,3.382-2.192,5.292c0.216,1.62,0.208,3.242,0.072,4.863c-0.26,1.408-0.639,2.783-1.136,4.127
	c-0.582,1.224-1.259,2.393-2.025,3.51c-0.975,1.183-2.042,2.276-3.218,3.26c-1.161,0.795-2.365,1.515-3.661,2.083
	c-1.603,0.703-2.996,2.864-3.439,4.473c-0.493,1.791-0.271,4.177,0.754,5.767C1163.127,1510.117,1164.661,1511.524,1166.57,1511.959
	z"/>
<path style="fill:#321C27;" d="M1164.692,1288.558c5.803,3.234,12.875,3.132,18.696,0.002c5.871-3.157,9.322-9.637,9.405-16.201
	c0.045-3.495-0.93-7.234-2.854-10.169c-1.066-1.626-2.563-2.913-4.473-3.439c-1.791-0.493-4.176-0.271-5.766,0.755
	c-1.598,1.03-3.004,2.564-3.439,4.473c-0.435,1.907-0.352,4.079,0.754,5.766c0.162,0.248,0.274,0.521,0.416,0.778
	c0.118,0.359,0.207,0.726,0.291,1.095c0.018,0.398,0.015,0.797-0.004,1.195c-0.089,0.397-0.197,0.789-0.324,1.175
	c-0.129,0.238-0.266,0.472-0.411,0.699c-0.133,0.14-0.268,0.278-0.408,0.411c-0.273,0.177-0.553,0.344-0.84,0.497
	c-0.365,0.119-0.736,0.224-1.111,0.311c-0.435,0.022-0.871,0.023-1.306,0.001c-0.427-0.102-0.853-0.207-1.266-0.356
	c-1.685-0.881-3.73-1.178-5.574-0.67c-1.736,0.479-3.618,1.821-4.473,3.44C1160.145,1281.846,1161.04,1286.523,1164.692,1288.558z"
	/>
<path style="fill:#321C27;" d="M954.561,1293.752c7.442,4.118,16.531,1.83,22.424-3.923c5.346-5.219,7.299-12.716,8.717-19.796
	c0.399-1.989,0.296-3.973-0.754-5.767c-0.909-1.552-2.688-3.033-4.472-3.439c-1.916-0.436-4.066-0.342-5.767,0.754
	c-1.572,1.013-3.058,2.572-3.439,4.472c-0.652,3.255-1.385,6.502-2.576,9.606c-0.432,0.894-0.922,1.755-1.469,2.583
	c-0.448,0.521-0.939,0.999-1.453,1.454c-0.428,0.281-0.869,0.542-1.323,0.779c-0.438,0.15-0.882,0.277-1.333,0.38
	c-0.23,0.007-0.461,0.01-0.691,0.002c-0.365-0.096-0.739-0.154-1.096-0.293c0.036,0.015,0.073,0.031,0.109,0.046
	c-3.369-1.455-7.761-0.506-9.562,2.902C950.018,1287.03,950.903,1291.728,954.561,1293.752z"/>
<path style="fill:#321C27;" d="M734.642,1293.643c3.22,0.88,6.624,0.854,9.853,0.031c3.276-0.834,6.115-2.546,8.684-4.686
	c4.519-3.762,7.589-10.062,7.088-16.001c-0.17-2.016-0.72-3.82-2.192-5.292c-1.298-1.298-3.427-2.275-5.292-2.192
	c-1.935,0.087-3.943,0.722-5.292,2.192c-1.278,1.393-2.357,3.334-2.192,5.292c0.036,0.428-0.01,0.852-0.021,1.277
	c-0.088,0.404-0.196,0.804-0.325,1.198c-0.224,0.43-0.467,0.85-0.735,1.255c-0.381,0.429-0.783,0.837-1.21,1.22
	c-0.52,0.351-1.06,0.668-1.619,0.952c-0.44,0.146-0.886,0.264-1.338,0.364c-0.412,0.016-0.824,0.025-1.236-0.002
	c-0.064-0.016-0.131-0.023-0.195-0.041c-1.875-0.512-4.088-0.228-5.767,0.755c-1.553,0.908-3.033,2.688-3.44,4.473
	c-0.436,1.915-0.342,4.066,0.755,5.766C731.226,1291.842,732.724,1293.118,734.642,1293.643z"/>
<path style="fill:#321C27;" d="M733.905,1510.285c0.933,0.927,2.034,1.568,3.302,1.924c6.536,2.558,14.209,2.739,20.495-0.609
	c2.818-1.5,5.362-4.016,6.8-6.878c1.433-2.849,2.391-6.127,2.091-9.347c-0.224-2.406-0.699-4.376-1.828-6.534
	c-1.099-2.099-2.775-3.56-4.639-4.94c-1.463-1.083-4.092-1.216-5.767-0.754c-1.736,0.477-3.617,1.819-4.472,3.439
	c-0.918,1.736-1.377,3.84-0.754,5.766c0.252,0.596,0.503,1.192,0.754,1.788c0.375,0.634,0.843,1.176,1.364,1.664l0.342,0.338
	c0.003,0.131,0.005,0.261,0.002,0.391c-0.071,0.308-0.153,0.614-0.25,0.915c-0.096,0.174-0.195,0.347-0.3,0.516
	c-0.077,0.08-0.155,0.158-0.234,0.235c-0.241,0.15-0.487,0.291-0.738,0.424c-0.568,0.188-1.143,0.354-1.731,0.471
	c-0.844,0.046-1.688,0.039-2.532-0.029c-1.578-0.292-3.126-0.705-4.624-1.292c-1.699-0.665-4.258-0.129-5.767,0.754
	c-1.552,0.908-3.033,2.689-3.44,4.472c-0.436,1.916-0.341,4.067,0.755,5.767C733.125,1509.275,733.515,1509.78,733.905,1510.285z"/>
<path style="fill:#321C27;" d="M961.899,1519.177c1.693,0.894,3.899,1.447,5.767,0.754c1.44-0.534,2.893-1.125,4.237-1.879
	c1.308-0.735,2.478-1.667,3.652-2.595c1.956-1.544,3.529-3.473,4.952-5.511c2.822-4.041,4.334-9.22,4.281-14.135
	c-0.021-1.932-0.82-3.92-2.192-5.292c-1.298-1.298-3.427-2.276-5.292-2.192c-1.935,0.086-3.943,0.722-5.292,2.192
	c-1.336,1.455-2.214,3.271-2.192,5.292c0.005,0.497-0.049,0.989-0.085,1.483c-0.153,0.762-0.352,1.511-0.6,2.247
	c-0.463,0.984-1.025,1.91-1.643,2.803c-0.593,0.681-1.233,1.316-1.915,1.907c-0.931,0.633-1.874,1.244-2.914,1.691
	c-1.411,0.664-2.612,1.566-3.449,2.996c-0.938,1.604-1.336,3.968-0.754,5.767C959.045,1516.516,960.168,1518.263,961.899,1519.177z"
	/>
<path style="fill:#321C27;" d="M728.049,1736.13c2.89,1.717,6.169,2.579,9.515,2.704c3.39,0.127,6.622-0.776,9.655-2.208
	c2.956-1.395,5.281-3.783,7.132-6.421c1.739-2.478,2.642-5.438,3.041-8.402c0.291-2.168,0.184-4.021-0.133-6.199
	c-0.265-1.817-0.953-3.433-1.706-5.109c-0.721-1.605-2.849-2.992-4.473-3.44c-1.791-0.493-4.176-0.27-5.766,0.755
	c-1.598,1.03-3.004,2.564-3.439,4.473c-0.089,0.663-0.178,1.326-0.268,1.989c0.002,0.863,0.193,1.675,0.47,2.463
	c0.233,0.593,0.342,1.215,0.481,1.829c0.02,0.417,0.019,0.833,0,1.25c-0.103,0.482-0.229,0.96-0.384,1.429
	c-0.192,0.367-0.399,0.723-0.625,1.07c-0.18,0.191-0.368,0.377-0.56,0.558c-0.3,0.192-0.61,0.371-0.925,0.538
	c-0.413,0.135-0.831,0.249-1.255,0.345c-0.505,0.028-1.011,0.031-1.516,0.003c-0.43-0.098-0.86-0.199-1.278-0.342
	c-0.134-0.074-0.277-0.129-0.41-0.208c-1.662-0.988-3.908-1.267-5.767-0.755c-1.736,0.478-3.617,1.821-4.472,3.439
	C723.458,1729.501,724.454,1733.994,728.049,1736.13z"/>
<path style="fill:#321C27;" d="M965.237,1741.271c3.953-0.069,7.685-1.467,10.79-3.866c5.961-4.606,7.823-12.025,8.819-19.124
	c0.312-0.994,0.356-1.99,0.134-2.984c-0.045-0.996-0.342-1.923-0.888-2.783c-0.909-1.552-2.688-3.032-4.472-3.439
	c-1.916-0.436-4.066-0.342-5.766,0.755c-1.515,0.977-3.177,2.599-3.439,4.472c-0.41,2.924-0.887,5.857-1.86,8.647
	c-0.346,0.732-0.754,1.43-1.2,2.105c-0.164,0.178-0.334,0.354-0.509,0.522c-0.236,0.149-0.477,0.29-0.722,0.423
	c-0.261,0.083-0.525,0.156-0.792,0.219c-0.092,0.002-0.186,0.001-0.278,0.001l-0.036-0.034c-1.208-1.387-3.506-2.192-5.292-2.192
	c-1.835,0-4.028,0.816-5.292,2.192c-1.309,1.426-2.281,3.298-2.192,5.291c0.092,2.062,0.832,3.731,2.192,5.292
	C957.059,1739.782,961.295,1741.339,965.237,1741.271z"/>
<path style="fill:#321C27;" d="M1574.368,1742.945c0.678,0.729,1.481,1.245,2.409,1.547c0.892,0.469,1.853,0.684,2.883,0.645
	c0.663-0.089,1.326-0.179,1.99-0.267c1.268-0.356,2.368-0.997,3.302-1.924c0.39-0.505,0.78-1.01,1.17-1.515
	c0.677-1.167,1.018-2.426,1.022-3.777v-1.186c0.039-1.03-0.176-1.991-0.645-2.883c-0.302-0.929-0.818-1.731-1.547-2.409
	c-0.678-0.73-1.48-1.246-2.408-1.548c-0.892-0.469-1.853-0.684-2.883-0.645c-0.663,0.089-1.326,0.179-1.99,0.267
	c-1.268,0.356-2.368,0.997-3.302,1.925c-0.39,0.505-0.78,1.01-1.17,1.515c-0.677,1.167-1.018,2.426-1.022,3.777v1.186
	c-0.039,1.03,0.176,1.992,0.645,2.883C1573.122,1741.464,1573.638,1742.267,1574.368,1742.945z"/>
<path style="fill:#321C27;" d="M1500.129,1741.126c-2.378,34.1-6.281,72.064-31.201,97.921
	c-23.051,23.917-57.451,32.984-89.675,34.724c-9.58,0.517-9.641,15.487,0,14.967c36.141-1.952,74.418-12.297,100.258-39.108
	c27.895-28.943,32.915-70.22,35.585-108.505C1515.766,1731.514,1500.796,1731.555,1500.129,1741.126z"/>
<path style="fill:#321C27;" d="M1508.529,1726.169c9.631,0,9.646-14.967,0-14.967
	C1498.898,1711.202,1498.882,1726.169,1508.529,1726.169z"/>
<path style="fill:#321C27;" d="M631.536,1891.085c9.339,2.369,13.324-12.062,3.979-14.433
	c-26.141-6.632-51.311-18.788-64.969-43.176c-14.641-26.142-14.616-57.194-14.747-86.308c-0.043-9.628-15.011-9.648-14.967,0
	c0.146,32.473,0.807,66.812,17.799,95.616C574.372,1869.47,602.396,1883.691,631.536,1891.085z"/>
<path style="fill:#321C27;" d="M549.449,1730.91c9.631,0,9.647-14.967,0-14.967C539.819,1715.943,539.803,1730.91,549.449,1730.91z"
	/>
<path style="fill:#321C27;" d="M587.873,603.117c-0.471-35.965-0.35-71.934,0.363-107.895c0.191-9.635-14.776-9.634-14.967,0
	c-0.713,35.961-0.834,71.93-0.363,107.895C573.032,612.74,587.999,612.767,587.873,603.117z"/>
</svg>
